<svg width="71" height="61" viewBox="0 0 71 61" fill="none" xmlns="http://www.w3.org/2000/svg">
<g clip-path="url(#clip0_50_506)">
<path d="M47.8444 4.75055C49.1982 6.52244 49.9466 7.63191 50.0896 8.07895C50.7538 10.1404 51.4334 12.1956 52.1284 14.2444C53.0714 17.0226 53.2967 20.0369 52.8044 23.2875C52.3809 23.6205 52.0008 23.6839 51.6642 23.4775C51.2271 21.4115 49.8452 20.122 48.2272 18.6994C47.1657 17.4587 45.9304 16.4895 45.002 15.333C43.2391 13.1412 41.517 11.0626 39.8356 9.09702C39.5044 8.71151 39.3451 8.77305 39.3578 9.28163C39.3904 10.7241 39.4754 12.1114 39.613 13.4435C39.7451 14.7394 39.8447 16.0389 39.9116 17.342C39.937 17.8397 39.7804 17.9067 39.4419 17.5429C38.756 16.8063 37.9949 16.1022 37.1588 15.4307C35.7253 14.2797 35.033 13.362 34.357 11.8037C33.5697 10.7449 33.529 9.40108 33.1245 8.3613C32.9091 7.80566 32.6033 7.74955 32.2069 8.19297L22.8135 18.7157C21 20.046 19.8905 21.8007 19.4851 23.9798C19.5159 23.8368 19.4037 23.7789 19.1485 23.806C19.0955 23.8131 19.0415 23.8036 18.9937 23.7789C18.8055 23.6793 18.6517 23.5373 18.5322 23.3527C18.3096 20.6785 17.8182 18.7483 18.5186 15.7647C18.9404 13.9765 19.5521 12.2607 20.3539 10.6173C20.5023 10.3151 20.6027 9.94405 20.6552 9.50424C20.8588 7.8129 22.3411 6.12698 23.3375 4.78856C28.0233 0.599556 34.1073 -0.415798 40.1804 0.735296C42.9007 1.25112 45.4553 2.58954 47.8444 4.75055ZM32.7309 7.10432C32.7471 6.78397 33.0274 6.61068 33.1034 6.93104C33.2175 7.40342 32.7109 7.58937 32.7309 7.10432ZM48.3113 12.1268C48.3113 12.1485 48.3023 12.1883 48.2842 12.2462C48.2009 12.5032 48.2887 12.5955 48.5475 12.5231L50.3149 12.0263C50.3497 12.0168 50.3822 12.0003 50.4105 11.9777C50.4387 11.9552 50.4622 11.9271 50.4794 11.8952C50.4967 11.8633 50.5073 11.8282 50.5108 11.7919C50.5142 11.7557 50.5104 11.7191 50.4995 11.6843L49.8914 9.75129C49.8762 9.70133 49.8464 9.65692 49.8059 9.62361C49.7653 9.5903 49.7158 9.56956 49.6633 9.56397L48.3168 9.41465C48.2734 9.41002 48.2296 9.4158 48.1889 9.43151C48.1483 9.44721 48.112 9.47237 48.0833 9.50487C48.0545 9.53736 48.0341 9.57623 48.0237 9.61818C48.0133 9.66013 48.0132 9.70392 48.0236 9.74586C48.21 10.5223 48.3059 11.3159 48.3113 12.1268ZM21.2063 12.1404C21.3367 12.1811 24.4723 12.9575 23.3429 11.82C22.3819 10.8508 23.4787 10.6255 23.3538 9.8626C23.3418 9.79172 23.3022 9.72848 23.2437 9.68675C23.1852 9.64502 23.1125 9.6282 23.0416 9.63999L22.3221 9.75129C22.2814 9.7581 22.2429 9.77359 22.2095 9.79662C22.1761 9.81965 22.1488 9.84962 22.1294 9.88432L21.0516 11.7467C21.0311 11.7816 21.0189 11.8207 21.0157 11.8611C21.0126 11.9015 21.0187 11.9421 21.0336 11.9799C21.0485 12.0178 21.0717 12.0518 21.1016 12.0796C21.1316 12.1074 21.1673 12.1282 21.2063 12.1404Z" fill="#68C2D2"/>
<path d="M54.7863 12.686C54.8188 13.4335 54.9781 14.0923 55.2641 14.6624C55.3763 17.0225 55.1609 19.3528 54.6179 21.6532C53.8668 22.1654 53.2623 22.7101 52.8044 23.2875C53.2967 20.0369 53.0714 17.0225 52.1284 14.2443C51.4334 12.1955 50.7538 10.1404 50.0896 8.07894C49.9466 7.63189 49.1982 6.52243 47.8444 4.75054C48.7421 3.75691 49.819 3.18769 51.0751 3.0429C51.1446 3.03587 51.2136 3.0553 51.2678 3.0972C53.6243 4.8537 54.227 9.17845 54.7863 12.686Z" fill="#4D4B65"/>
<path d="M23.3375 4.78856C22.3411 6.12697 20.8588 7.81289 20.6552 9.50424C20.6027 9.94404 20.5023 10.3151 20.3539 10.6173C19.5521 12.2607 18.9404 13.9765 18.5186 15.7647C17.8182 18.7483 18.3096 20.6785 18.5322 23.3527C18.2046 22.7409 17.7205 22.2703 17.0798 21.9409C15.8635 20.1084 15.9477 16.1149 16.097 14.2389C16.2943 13.7122 16.3884 13.0571 16.3794 12.2734C17.125 8.77304 17.9838 5.9306 18.9557 3.74606C19.6806 2.11715 22.5773 4.05826 23.3375 4.78856Z" fill="#4D4B65"/>
<path d="M34.3571 11.8037C34.4403 12.5168 34.5552 13.0028 34.7018 13.2616C34.9969 13.7792 35.0394 14.3177 34.8294 14.8769C34.4548 15.8742 33.7326 16.3411 32.663 16.2778C32.453 16.2633 32.3182 16.1303 32.2585 15.8787C32.2508 15.8444 32.2363 15.8118 32.2158 15.7829C32.1953 15.7541 32.1692 15.7294 32.139 15.7104C31.7354 15.4588 31.3074 15.2814 30.8549 15.1783C30.7901 15.1643 30.7227 15.1739 30.6649 15.2054C29.8685 15.647 29.0296 15.9864 28.1482 16.2235C28.0849 16.2411 28.0302 16.2795 27.9935 16.3321C27.7546 16.685 27.769 17.0008 28.0369 17.2795C28.0841 17.3285 28.1113 17.3934 28.1129 17.4614C28.1183 17.7402 28.2278 17.9619 28.4414 18.1266C26.6333 18.856 25.9546 20.2062 26.4053 22.1771C25.4334 22.8558 24.3601 23.0558 23.1855 22.7771L22.8135 18.7157L32.2069 8.19296C32.6033 7.74954 32.9091 7.80565 33.1245 8.36129C33.529 9.40107 33.5697 10.7449 34.3571 11.8037Z" fill="#FED7C1"/>
<path d="M48.2272 18.6994C48.4371 21.0505 48.3304 23.2079 47.9068 25.1716C47.7747 25.7797 47.4526 26.4123 46.9404 27.0693C45.2164 29.3009 42.7161 30.1425 39.9686 30.2972C39.9453 30.2987 39.9223 30.291 39.9045 30.2758C39.8868 30.2606 39.8757 30.2391 39.8736 30.2158C39.8646 30.1036 39.7406 30.0583 39.5017 30.08C35.7697 30.442 32.0657 30.2465 28.3898 29.4936C26.9654 29.2004 25.6162 28.3796 24.342 27.0313C23.5565 25.7318 23.171 24.3137 23.1855 22.7771C24.3601 23.0558 25.4334 22.8558 26.4053 22.1771C28.7998 25.8042 33.7896 22.1038 32.0576 19.294C31.2947 18.056 29.7934 17.7709 28.4414 18.1266C28.2278 17.9619 28.1183 17.7402 28.1129 17.4614C28.1113 17.3934 28.0841 17.3285 28.0369 17.2795C27.769 17.0008 27.7546 16.685 27.9935 16.3321C28.0302 16.2795 28.0849 16.2411 28.1482 16.2235C29.0296 15.9864 29.8685 15.647 30.6649 15.2054C30.7227 15.1739 30.7901 15.1643 30.8549 15.1783C31.3074 15.2814 31.7354 15.4588 32.139 15.7104C32.1692 15.7294 32.1953 15.7541 32.2158 15.7829C32.2363 15.8118 32.2508 15.8444 32.2585 15.8787C32.3182 16.1303 32.453 16.2633 32.663 16.2778C33.7326 16.3411 34.4548 15.8742 34.8294 14.8769C35.0394 14.3176 34.9968 13.7792 34.7018 13.2616C34.5552 13.0028 34.4403 12.5168 34.357 11.8037C35.033 13.362 35.7253 14.2796 37.1588 15.4307C37.9949 16.1022 38.756 16.8063 39.4419 17.5429C39.7804 17.9067 39.937 17.8397 39.9116 17.342C39.8447 16.0389 39.7451 14.7394 39.613 13.4435C39.4754 12.1114 39.3904 10.7241 39.3578 9.28161C39.3451 8.77303 39.5044 8.71149 39.8356 9.097C41.517 11.0625 43.2391 13.1412 45.002 15.333C45.9304 16.4895 47.1657 17.4587 48.2272 18.6994ZM44.9259 20.8903C45.2924 16.3918 37.2755 18.0424 39.1542 21.8622C40.5713 24.7454 44.6735 23.9689 44.9259 20.8903ZM34.634 25.9725C34.386 25.9363 33.967 25.7616 33.377 25.4485C33.0186 25.2585 32.8883 25.3598 32.9861 25.7526C33.1598 26.4602 33.6512 26.8105 34.4602 26.8032C35.5543 26.7924 37.2918 26.9227 37.8158 26.7408C38.3678 26.5489 38.7352 26.2204 38.918 25.7553C39.0863 25.33 38.9632 25.215 38.5488 25.4105C37.338 25.986 36.033 26.1734 34.634 25.9725Z" fill="#FED7C1"/>
<path d="M48.3114 12.1268C48.3059 11.3159 48.21 10.5223 48.0236 9.74586C48.0132 9.70392 48.0133 9.66013 48.0237 9.61818C48.0341 9.57623 48.0545 9.53736 48.0833 9.50487C48.112 9.47237 48.1483 9.44721 48.1889 9.43151C48.2296 9.4158 48.2734 9.41002 48.3168 9.41465L49.6633 9.56397C49.7158 9.56956 49.7653 9.5903 49.8059 9.62361C49.8464 9.65692 49.8762 9.70133 49.8914 9.75129L50.4995 11.6843C50.5104 11.7191 50.5142 11.7557 50.5108 11.7919C50.5073 11.8282 50.4967 11.8633 50.4794 11.8952C50.4622 11.9271 50.4387 11.9552 50.4105 11.9777C50.3822 12.0003 50.3497 12.0168 50.3149 12.0263L48.5475 12.5231C48.2887 12.5955 48.2009 12.5032 48.2842 12.2462C48.3023 12.1883 48.3114 12.1485 48.3114 12.1268Z" fill="#D5DBD8"/>
<path d="M21.2064 12.1404C21.1674 12.1282 21.1316 12.1074 21.1017 12.0796C21.0717 12.0518 21.0485 12.0178 21.0336 11.9799C21.0187 11.9421 21.0126 11.9014 21.0157 11.8611C21.0189 11.8207 21.0311 11.7816 21.0516 11.7467L22.1294 9.88432C22.1488 9.84962 22.1762 9.81964 22.2095 9.79661C22.2429 9.77359 22.2814 9.7581 22.3222 9.75129L23.0416 9.63998C23.1125 9.6282 23.1852 9.64501 23.2437 9.68675C23.3022 9.72848 23.3418 9.79172 23.3538 9.8626C23.4787 10.6255 22.3819 10.8508 23.3429 11.82C24.4723 12.9575 21.3367 12.1811 21.2064 12.1404Z" fill="#D5DBD8"/>
<path d="M16.3794 12.2734C16.3884 13.0571 16.2943 13.7122 16.097 14.2389C14.5604 14.8362 13.232 15.7004 12.1116 16.8316C9.48637 19.4759 7.8276 22.8531 6.99958 26.6648C5.62405 32.9867 5.52179 39.0481 6.6928 44.8488C7.53711 49.0269 9.04385 53.2214 11.813 56.3842C11.4347 56.7099 11.0003 56.7226 10.5099 56.4222C6.36159 53.8838 3.58702 50.4984 2.10471 45.8614C0.300248 40.2236 0.552726 34.5659 2.86215 28.8882C5.62315 22.0984 9.26918 15.1348 16.3794 12.2734Z" fill="#68C2D2"/>
<path d="M59.9336 55.9769C65.6891 48.0523 66.6338 37.1929 64.8583 27.7588C64.0765 23.6024 62.8168 20.4939 60.0368 17.5347C58.721 16.1357 57.1301 15.1783 55.2641 14.6624C54.9781 14.0923 54.8188 13.4335 54.7863 12.686C57.6803 12.3168 61.5652 16.2832 63.0774 18.4388C67.0573 24.1155 70.0111 31.0927 70.231 37.9504C70.4989 46.3012 67.1026 52.5653 60.0422 56.7425C59.6567 56.9706 59.6096 56.9145 59.901 56.5742C59.9662 56.4982 60.0413 56.4294 60.1263 56.3679C60.1547 56.3479 60.1777 56.3213 60.1933 56.2905C60.2089 56.2598 60.2167 56.2257 60.2159 56.1914C60.2159 56.0448 60.1218 55.9733 59.9336 55.9769Z" fill="#68C2D2"/>
<path d="M16.097 14.2389C15.9477 16.1149 15.8635 20.1084 17.0798 21.9409C15.9196 23.5011 15.1595 25.3019 14.7993 27.3435C13.6129 34.1034 14.2238 40.7032 16.9033 46.9365C18.1331 49.7979 19.4254 52.3037 21.3339 54.4105C22.9267 56.1697 24.7474 57.8031 26.7962 59.3108C27.0261 59.47 27.1853 59.6664 27.274 59.8999C27.2986 59.9652 27.297 60.0374 27.2697 60.1016C27.2424 60.1658 27.1915 60.217 27.1274 60.2447C26.541 60.5017 26.0288 60.6519 25.5908 60.6953C20.3421 61.2256 15.7495 59.7886 11.813 56.3841C9.04384 53.2214 7.5371 49.0269 6.69279 44.8488C5.52178 39.0481 5.62405 32.9867 6.99957 26.6648C7.82759 22.8531 9.48636 19.4759 12.1116 16.8316C13.2319 15.7004 14.5604 14.8362 16.097 14.2389Z" fill="#42ABC7"/>
<path d="M59.9336 55.9769C55.9971 59.5442 51.2452 61.0926 45.678 60.622C44.8273 60.5496 44.2789 60.242 44.0328 59.699C47.5593 56.8131 50.7303 54.0548 52.8424 49.95C53.1755 49.3039 53.894 47.7763 54.998 45.3673C57.7726 39.3187 58.3753 32.8166 56.7545 26.187C56.4378 24.8947 55.7256 23.3834 54.6179 21.6532C55.1609 19.3528 55.3763 17.0225 55.2641 14.6624C57.1301 15.1783 58.721 16.1357 60.0368 17.5348C62.8168 20.4939 64.0765 23.6024 64.8583 27.7589C66.6338 37.1929 65.6891 48.0523 59.9336 55.9769Z" fill="#42ABC7"/>
<path d="M26.4053 22.1771C25.9546 20.2062 26.6333 18.856 28.4414 18.1266C29.7934 17.7709 31.2947 18.056 32.0576 19.294C33.7897 22.1038 28.7998 25.8042 26.4053 22.1771Z" fill="#4D4B65"/>
<path d="M39.1542 21.8622C37.2755 18.0424 45.2924 16.3918 44.9259 20.8903C44.6735 23.9689 40.5713 24.7454 39.1542 21.8622Z" fill="#4D4B65"/>
<path d="M22.8135 18.7157L23.1855 22.7771C23.171 24.3137 23.5565 25.7318 24.342 27.0313C24.0886 26.8955 23.8977 26.9543 23.7692 27.2077C23.4922 27.7534 22.6941 28.0928 22.0534 28.0629C19.5204 27.938 19.7512 25.891 19.4851 23.9798C19.8906 21.8007 21 20.046 22.8135 18.7157Z" fill="#4D4B65"/>
<path d="M48.2272 18.6994C49.8452 20.122 51.2271 21.4115 51.6642 23.4775C52.2325 25.9897 51.3013 27.538 48.8706 28.1226C48.4996 28.2131 48.1928 28.0611 47.9503 27.6665L47.562 27.0313C47.5266 26.9731 47.4702 26.9306 47.4042 26.9124C47.3382 26.8943 47.2675 26.9018 47.2064 26.9335L46.9404 27.0693C47.4526 26.4123 47.7747 25.7797 47.9068 25.1716C48.3304 23.2079 48.4371 21.0505 48.2272 18.6994Z" fill="#4D4B65"/>
<path d="M54.6179 21.6532C55.7256 23.3834 56.4378 24.8947 56.7545 26.187C58.3753 32.8166 57.7726 39.3187 54.998 45.3673C53.894 47.7763 53.1754 49.3039 52.8424 49.95C50.7303 54.0548 47.5593 56.8131 44.0327 59.699C43.8264 58.5045 42.2491 57.9615 41.2229 57.8583C41.185 57.8546 41.1483 57.8429 41.1152 57.824C41.0821 57.8051 41.0533 57.7795 41.0308 57.7487C41.0082 57.718 40.9924 57.6829 40.9844 57.6456C40.9763 57.6084 40.9762 57.5698 40.984 57.5325C41.051 57.2231 40.9686 57.0475 40.7369 57.0059L41.7441 54.234C42.2681 54.2666 42.2029 52.958 42.3713 52.5372C42.5179 52.1734 42.5767 51.7852 42.5477 51.3726C42.7378 51.2278 42.8581 51.0377 42.9088 50.8024C42.9183 50.7562 42.94 50.7134 42.9715 50.6782C43.0031 50.6431 43.0435 50.617 43.0886 50.6024C43.1337 50.5878 43.182 50.5853 43.2286 50.5952C43.2752 50.605 43.3185 50.6269 43.354 50.6586L43.8346 51.0848C43.8693 51.1162 43.9116 51.1379 43.9573 51.1479C44.003 51.1579 44.0505 51.1558 44.0952 51.1418C46.5494 50.3654 48.8263 49.2369 50.9257 47.7564C50.9765 47.721 51.0133 47.669 51.0302 47.6091C51.047 47.5493 51.0427 47.4853 51.018 47.4279L50.3882 45.9429C50.3758 45.9166 50.3547 45.8955 50.3285 45.8832C50.2995 45.8705 50.2697 45.8678 50.2389 45.875C50.7411 45.5655 47.1901 41.2788 46.7747 40.8145C45.9033 39.8426 45.268 38.678 44.402 37.6517C44.0852 37.2753 43.5242 36.3233 42.7188 34.7957C42.5722 34.517 42.3468 34.3442 42.0428 34.2772C42.0058 34.2687 41.971 34.2528 41.9405 34.2303C41.9101 34.2078 41.8846 34.1794 41.8657 34.1467C41.8468 34.1141 41.8349 34.0779 41.8308 34.0406C41.8267 34.0032 41.8305 33.9655 41.8419 33.9297L41.9423 33.6202C41.955 33.5804 41.9586 33.5406 41.9532 33.5008C41.8201 32.4691 41.2826 32.7243 40.6066 32.9523C39.4953 33.3324 38.3976 33.7469 37.3135 34.1958C37.1805 32.4718 35.0575 33.479 34.4928 34.269L30.1083 32.9741C30.0619 32.9608 30.0129 32.9599 29.9663 32.9713C29.9196 32.9828 29.8769 33.0062 29.8423 33.0392C29.4857 33.3813 29.2206 33.784 29.0468 34.2473C29.0318 34.2876 29.0075 34.3237 28.9758 34.3525C28.9442 34.3813 28.9061 34.402 28.8649 34.4129C28.683 34.4645 28.5038 34.5975 28.4197 34.7849C27.6903 36.3776 26.7636 37.8445 25.6397 39.1856C25.3872 39.487 25.3655 39.8508 25.0777 40.1358C23.3619 41.8299 21.9846 43.7484 20.9457 45.8913L20.3647 47.0451C20.3408 47.0942 20.3319 47.1492 20.3392 47.2033C20.3464 47.2574 20.3695 47.3081 20.4055 47.3492C21.9964 49.1165 24.9175 50.5337 26.9781 51.264C27.0269 51.281 27.0796 51.2837 27.1301 51.2716C27.1806 51.2596 27.2268 51.2334 27.2632 51.1961C27.5473 50.9011 27.8686 50.892 28.2269 51.169L28.797 51.6685C28.9346 52.5879 29.2414 53.4974 29.7174 54.3969L30.5346 56.7344C29.1663 57.4167 27.9202 58.2755 26.7962 59.3108C24.7474 57.8031 22.9267 56.1697 21.3339 54.4105C19.4254 52.3038 18.1331 49.798 16.9033 46.9365C14.2238 40.7032 13.6129 34.1034 14.7993 27.3435C15.1595 25.3019 15.9196 23.5011 17.0798 21.9409C17.7205 22.2703 18.2046 22.7409 18.5322 23.3527C18.6517 23.5373 18.8055 23.6793 18.9937 23.7789C19.0415 23.8036 19.0955 23.8131 19.1485 23.806C19.4037 23.7789 19.5159 23.8368 19.4851 23.9798C19.7512 25.891 19.5204 27.938 22.0534 28.0629C22.6941 28.0928 23.4922 27.7534 23.7692 27.2077C23.8977 26.9544 24.0886 26.8955 24.342 27.0313C25.6162 28.3796 26.9654 29.2004 28.3898 29.4936C32.0657 30.2466 35.7697 30.442 39.5017 30.08C39.7406 30.0583 39.8646 30.1036 39.8736 30.2158C39.8757 30.2391 39.8868 30.2606 39.9045 30.2758C39.9223 30.2911 39.9453 30.2987 39.9686 30.2972C42.716 30.1425 45.2164 29.3009 46.9404 27.0693L47.2064 26.9335C47.2675 26.9019 47.3382 26.8943 47.4042 26.9125C47.4702 26.9306 47.5266 26.9731 47.562 27.0313L47.9503 27.6665C48.1928 28.0611 48.4996 28.2131 48.8706 28.1226C51.3013 27.538 52.2325 25.9897 51.6642 23.4775C52.0008 23.6839 52.3809 23.6205 52.8044 23.2875C53.2623 22.7101 53.8668 22.1654 54.6179 21.6532Z" fill="#197892"/>
<path d="M34.634 25.9725C36.033 26.1734 37.3379 25.986 38.5488 25.4105C38.9632 25.215 39.0863 25.33 38.918 25.7553C38.7352 26.2204 38.3678 26.5489 37.8158 26.7408C37.2918 26.9227 35.5543 26.7924 34.4602 26.8032C33.6512 26.8105 33.1598 26.4602 32.9861 25.7526C32.8883 25.3598 33.0186 25.2585 33.377 25.4485C33.967 25.7616 34.386 25.9363 34.634 25.9725Z" fill="#4D4B65"/>
<path d="M50.2389 45.875C47.9584 47.7292 45.6209 48.4161 43.0283 49.6025C42.9933 49.6185 42.9552 49.6269 42.9167 49.6271C42.8782 49.6273 42.8401 49.6193 42.8049 49.6036C42.7698 49.5879 42.7383 49.565 42.7127 49.5362C42.6871 49.5075 42.6679 49.4736 42.6563 49.4369C41.8057 46.7383 40.8863 44.0923 39.8981 41.4987C39.2275 39.7313 39.404 38.0888 39.1542 36.278C38.4809 36.0192 37.785 35.85 37.0665 35.7704C37.0203 35.7654 36.9763 35.7486 36.9384 35.7217C36.9006 35.6948 36.8703 35.6587 36.8504 35.6167C36.8306 35.5748 36.8218 35.5285 36.8249 35.4822C36.828 35.4359 36.843 35.3912 36.8683 35.3523C37.071 35.041 37.2194 34.6555 37.3135 34.1958C38.3977 33.7469 39.4954 33.3324 40.6066 32.9523C41.2826 32.7243 41.8202 32.4691 41.9532 33.5008C41.9586 33.5406 41.955 33.5804 41.9423 33.6202L41.8419 33.9297C41.8305 33.9655 41.8268 34.0032 41.8309 34.0406C41.835 34.0779 41.8468 34.1141 41.8657 34.1467C41.8846 34.1794 41.9101 34.2078 41.9405 34.2303C41.971 34.2528 42.0058 34.2687 42.0428 34.2772C42.3468 34.3442 42.5722 34.517 42.7188 34.7957C43.5242 36.3233 44.0853 37.2753 44.402 37.6517C45.268 38.678 45.9033 39.8426 46.7748 40.8145C47.1901 41.2788 50.7411 45.5655 50.2389 45.875Z" fill="#D5DBD8"/>
<path d="M34.4928 34.269C34.4222 34.6726 34.4503 35.0744 34.577 35.4744C34.5888 35.5116 34.5925 35.5508 34.5878 35.5895C34.5831 35.6281 34.5701 35.6653 34.5498 35.6986C34.5294 35.7318 34.5022 35.7603 34.4699 35.782C34.4375 35.8038 34.4009 35.8183 34.3625 35.8246L32.3046 36.1667C32.2499 36.1753 32.1991 36.2008 32.1593 36.2397C32.1194 36.2786 32.0924 36.329 32.082 36.3839C31.8648 37.5278 31.7843 38.677 31.8404 39.8318C31.873 40.5105 31.0721 41.9168 30.8332 42.5629C29.9681 44.9031 29.1156 47.2306 28.2758 49.5455C28.2633 49.5796 28.244 49.6108 28.2191 49.6373C28.1941 49.6637 28.1641 49.6849 28.1307 49.6996C28.0972 49.7143 28.0612 49.7222 28.0245 49.7227C27.9879 49.7233 27.9515 49.7166 27.9174 49.7029C25.4831 48.7202 23.1592 47.4496 20.9457 45.8913C21.9846 43.7484 23.3619 41.8299 25.0777 40.1358C25.3655 39.8508 25.3872 39.487 25.6397 39.1856C26.7636 37.8445 27.6903 36.3776 28.4197 34.7849C28.5038 34.5975 28.683 34.4645 28.8649 34.4129C28.9061 34.402 28.9442 34.3813 28.9758 34.3525C29.0075 34.3237 29.0318 34.2876 29.0468 34.2473C29.2206 33.784 29.4857 33.3813 29.8423 33.0392C29.8769 33.0062 29.9196 32.9827 29.9663 32.9713C30.0129 32.9599 30.0619 32.9608 30.1083 32.9741L34.4928 34.269Z" fill="#D5DBD8"/>
<path d="M37.3135 34.1958C37.2194 34.6555 37.071 35.041 36.8683 35.3523C36.843 35.3912 36.828 35.4359 36.8249 35.4822C36.8218 35.5285 36.8306 35.5748 36.8504 35.6167C36.8703 35.6587 36.9006 35.6948 36.9384 35.7217C36.9762 35.7486 37.0203 35.7654 37.0665 35.7704C37.785 35.85 38.4809 36.0192 39.1542 36.278C38.9605 36.9676 38.9687 37.8373 39.1786 38.887C39.5315 40.6462 37.6529 41.067 36.3117 40.991C36.2507 40.9877 36.1926 40.9639 36.1468 40.9236C36.101 40.8832 36.0702 40.8285 36.0593 40.7684C35.9887 40.3856 35.9778 39.3051 35.7525 38.6888C35.7072 38.5621 35.6629 38.563 35.6195 38.6915L34.805 41.0752C34.7833 41.1381 34.7392 41.1908 34.6811 41.2233C34.6231 41.2559 34.5551 41.2659 34.4901 41.2516C33.7136 41.0869 32.9851 40.8082 32.3046 40.4155C32.2701 40.3955 32.2317 40.3832 32.192 40.3796C32.1523 40.376 32.1124 40.3811 32.0751 40.3946C32.0378 40.4081 32.004 40.4296 31.9761 40.4576C31.9482 40.4856 31.9269 40.5194 31.9137 40.5566C30.9798 43.1412 30.0133 45.7166 29.0142 48.2831C28.7998 48.8342 28.6097 49.6188 28.1944 50.2513C28.1709 50.2858 28.1559 50.3254 28.1507 50.3669C28.1455 50.4084 28.1502 50.4507 28.1645 50.4902C28.2441 50.7092 28.2649 50.9355 28.2269 51.169C27.8686 50.892 27.5473 50.9011 27.2632 51.1961C27.2268 51.2334 27.1806 51.2596 27.1301 51.2716C27.0796 51.2837 27.0269 51.281 26.9781 51.264C24.9175 50.5337 21.9964 49.1165 20.4055 47.3492C20.3695 47.3081 20.3464 47.2574 20.3392 47.2033C20.3319 47.1492 20.3408 47.0942 20.3647 47.0451L20.9457 45.8913C23.1592 47.4496 25.4831 48.7202 27.9174 49.7029C27.9515 49.7166 27.9879 49.7233 28.0245 49.7227C28.0612 49.7222 28.0972 49.7143 28.1307 49.6996C28.1641 49.685 28.1941 49.6637 28.2191 49.6373C28.244 49.6108 28.2633 49.5796 28.2758 49.5455C29.1156 47.2306 29.968 44.9031 30.8332 42.5629C31.0721 41.9168 31.873 40.5105 31.8404 39.8318C31.7843 38.6771 31.8648 37.5278 32.082 36.3839C32.0924 36.329 32.1194 36.2786 32.1593 36.2397C32.1991 36.2008 32.2499 36.1753 32.3046 36.1667L34.3625 35.8247C34.4009 35.8183 34.4375 35.8038 34.4699 35.782C34.5022 35.7603 34.5294 35.7318 34.5498 35.6986C34.5701 35.6654 34.5831 35.6281 34.5878 35.5895C34.5925 35.5508 34.5888 35.5116 34.577 35.4744C34.4503 35.0745 34.4222 34.6727 34.4928 34.2691C35.0575 33.479 37.1805 32.4718 37.3135 34.1958Z" fill="#4D4B65"/>
<path d="M39.1542 36.278C39.4039 38.0888 39.2275 39.7313 39.898 41.4987C40.8862 44.0923 41.8057 46.7383 42.6563 49.4369C42.6678 49.4736 42.6871 49.5075 42.7127 49.5362C42.7383 49.565 42.7698 49.5879 42.8049 49.6036C42.8401 49.6193 42.8782 49.6273 42.9167 49.6271C42.9552 49.6269 42.9932 49.6185 43.0283 49.6025C45.6209 48.4161 47.9584 47.7292 50.2389 45.875C50.2697 45.8678 50.2995 45.8705 50.3285 45.8831C50.3547 45.8955 50.3758 45.9166 50.3882 45.9429L51.018 47.4279C51.0427 47.4853 51.047 47.5493 51.0301 47.6091C51.0133 47.669 50.9765 47.721 50.9257 47.7564C48.8263 49.2369 46.5494 50.3653 44.0952 51.1418C44.0505 51.1558 44.003 51.1579 43.9573 51.1479C43.9116 51.1379 43.8693 51.1162 43.8346 51.0848L43.354 50.6586C43.3185 50.6269 43.2752 50.605 43.2286 50.5952C43.182 50.5853 43.1337 50.5878 43.0886 50.6024C43.0435 50.6169 43.0031 50.6431 42.9715 50.6782C42.94 50.7133 42.9183 50.7562 42.9088 50.8024C42.8581 51.0377 42.7378 51.2278 42.5477 51.3726C40.9152 51.7237 39.2673 51.9762 37.604 52.13L35.0249 51.9943C34.824 51.9743 34.6421 52.0214 34.4792 52.1354C34.4335 52.1688 34.3771 52.186 34.319 52.1843C32.5055 52.1535 30.6649 51.9816 28.797 51.6685L28.2269 51.1689C28.2649 50.9355 28.2441 50.7092 28.1645 50.4902C28.1502 50.4507 28.1455 50.4084 28.1507 50.3669C28.1559 50.3254 28.1709 50.2858 28.1943 50.2513C28.6097 49.6188 28.7998 48.8342 29.0142 48.2831C30.0133 45.7166 30.9798 43.1412 31.9137 40.5566C31.9269 40.5194 31.9482 40.4856 31.9761 40.4576C32.004 40.4296 32.0378 40.4081 32.0751 40.3946C32.1124 40.3811 32.1523 40.376 32.192 40.3796C32.2317 40.3832 32.2701 40.3955 32.3046 40.4155C32.9851 40.8082 33.7136 41.0869 34.4901 41.2516C34.5551 41.2659 34.6231 41.2558 34.6811 41.2233C34.7392 41.1908 34.7833 41.1381 34.805 41.0752L35.6194 38.6915C35.6629 38.563 35.7072 38.5621 35.7525 38.6888C35.9778 39.3051 35.9887 40.3856 36.0593 40.7684C36.0702 40.8285 36.101 40.8831 36.1468 40.9235C36.1926 40.9639 36.2507 40.9877 36.3117 40.991C37.6529 41.067 39.5315 40.6462 39.1786 38.887C38.9687 37.8373 38.9605 36.9676 39.1542 36.278Z" fill="#4D4B65"/>
<path d="M42.5477 51.3726C42.5767 51.7852 42.5179 52.1734 42.3713 52.5372C42.203 52.958 42.2681 54.2666 41.7441 54.234C40.1406 54.4512 38.499 54.5706 36.8194 54.5924L36.5316 52.5861C36.5229 52.5282 36.5332 52.469 36.5612 52.4176C36.5891 52.3661 36.6331 52.3252 36.6864 52.301C36.9705 52.1707 37.2764 52.1137 37.604 52.13C39.2673 51.9762 40.9152 51.7237 42.5477 51.3726Z" fill="#FED7C1"/>
<path d="M28.7971 51.6685C30.6649 51.9816 32.5055 52.1535 34.319 52.1843C34.3771 52.186 34.4335 52.1688 34.4792 52.1354C34.6421 52.0214 34.824 51.9743 35.0249 51.9943C35.0122 52.8883 34.8285 53.7236 34.4738 54.5001C32.8883 54.634 31.3029 54.5996 29.7174 54.3969C29.2414 53.4974 28.9346 52.5879 28.7971 51.6685Z" fill="#FED7C1"/>
<path d="M41.7441 54.234L40.7369 57.0059L39.7406 58.947C39.7192 58.9898 39.687 59.0262 39.6474 59.0524C39.6079 59.0786 39.5623 59.0938 39.5153 59.0963L37.6067 59.2022C37.5377 59.206 37.4699 59.1832 37.4169 59.1383C37.3639 59.0934 37.3299 59.0298 37.3217 58.9606L36.8194 54.5924C38.499 54.5706 40.1406 54.4512 41.7441 54.234Z" fill="#4D4B65"/>
<path d="M29.7174 54.3969C31.3029 54.5996 32.8883 54.634 34.4738 54.5001C34.1788 55.8828 34.0168 57.3262 33.9878 58.8302C33.9861 58.8979 33.9596 58.9625 33.9135 59.0117C33.8674 59.0608 33.8049 59.0909 33.7381 59.0963L31.7237 59.2565C31.6657 59.2611 31.6077 59.247 31.5583 59.2162C31.509 59.1854 31.4708 59.1396 31.4495 59.0854L30.5346 56.7344L29.7174 54.3969Z" fill="#4D4B65"/>
</g>
<defs>
<clipPath id="clip0_50_506">
<rect width="71" height="61" fill="white"/>
</clipPath>
</defs>
</svg>
