<svg width="512" height="512" viewBox="0 0 512 512" fill="none" xmlns="http://www.w3.org/2000/svg">
<g clip-path="url(#clip0_2_2)">
<path d="M456.19 512C455.77 500.04 454.44 489.69 450.83 477.56C446.26 462.21 442.37 446.12 435.39 431.72C428.07 416.64 420.187 403.317 411.74 391.75C406.187 384.157 401.67 376.997 398.19 370.27C394.49 363.1 391.34 353.68 388.07 345.37C387.383 343.623 387.02 341.803 386.98 339.91C386.687 325.677 385.67 311.49 383.93 297.35C383.914 297.217 383.871 297.089 383.804 296.974C383.737 296.859 383.647 296.759 383.54 296.68L382.67 296.01C382.502 295.882 382.378 295.705 382.317 295.504C382.256 295.302 382.261 295.088 382.33 294.89C388.58 276.79 392.75 256.61 389.75 238.21" stroke="#764EA7" stroke-width="2"/>
<path d="M389.75 238.21L390 237.71" stroke="#6B3C72" stroke-width="2"/>
<path d="M390 237.71C390.7 237.683 391.483 237.867 392.35 238.26" stroke="#A65634" stroke-width="2"/>
<path d="M392.35 238.26C400.957 236.647 407.56 232.053 412.16 224.48" stroke="#677692" stroke-width="2"/>
<path d="M412.16 224.48C416.05 224.52 425.55 225.34 429.25 228.79" stroke="#764EA7" stroke-width="2"/>
<path d="M429.25 228.79C433.67 238.53 436.03 245.87 433.38 256.41C428.44 276.07 406.21 281.97 388.69 281.21C388.497 281.201 388.305 281.249 388.138 281.348C387.97 281.448 387.836 281.595 387.75 281.77C385.85 285.637 384.32 289.64 383.16 293.78C383.123 293.916 383.115 294.059 383.135 294.199C383.156 294.338 383.206 294.472 383.282 294.591C383.357 294.709 383.456 294.811 383.573 294.888C383.69 294.966 383.822 295.017 383.96 295.04C412.78 299.85 437.59 280.08 442.99 252.02C443.39 249.947 443.177 246.537 442.35 241.79" stroke="#5B6B87" stroke-width="2"/>
<path d="M442.35 241.79C443.403 243.357 443.937 245.35 443.95 247.77C443.963 249.103 444.403 249.413 445.27 248.7C445.439 248.557 445.555 248.364 445.6 248.15C449.33 231.57 443.18 214.33 431.36 202.14C427.767 198.427 423.46 195.957 418.44 194.73C416.647 194.29 414.993 193.873 413.48 193.48C411.913 193.073 411.88 192.567 413.38 191.96C424.033 187.667 431.853 180.677 436.84 170.99C439.247 166.317 440.777 160.973 441.43 154.96C443.7 133.93 434.77 113.38 419.19 99.05C390.68 72.83 347.44 81.04 325.99 111.95C323.923 114.923 321.883 117.923 319.87 120.95C319.736 121.148 319.535 121.292 319.304 121.356C319.074 121.421 318.827 121.401 318.61 121.3C300.597 112.813 281.573 108.997 261.54 109.85C259.47 109.94 257.4 110.77 255.41 111.36C255.196 111.418 254.968 111.408 254.76 111.33C253.2 110.71 251.57 109.94 249.87 109.87C230 109 212.25 114.25 193.77 121.76C193.541 121.855 193.284 121.861 193.05 121.776C192.817 121.691 192.624 121.521 192.51 121.3C186.797 110.227 178.97 101.27 169.03 94.43C139.07 73.8 101.65 83.23 81.73 112.45C66.36 135 65.16 164.66 86.44 183.75C88.3267 185.437 90.3934 186.86 92.64 188.02C94.3267 188.9 96.1734 189.767 98.18 190.62C99.5534 191.213 99.56 191.823 98.2 192.45C96.6467 193.17 95.23 193.723 93.95 194.11C71.23 201.04 63.97 225.97 66.18 247.69C66.2105 247.99 66.3202 248.276 66.4978 248.519C66.6754 248.761 66.9144 248.952 67.19 249.07C67.35 249.143 67.4734 248.927 67.56 248.42C68.1467 244.947 69.3667 241.693 71.22 238.66" stroke="#764EA7" stroke-width="2"/>
<path d="M71.22 238.66C70.9734 239.907 70.6367 241.11 70.21 242.27C67.61 249.37 70.11 259.57 73.48 266.01C81.15 280.69 96.16 293.99 113.21 295.22C114.1 295.28 131.61 295.55 128.22 292.72C128.083 292.609 127.979 292.46 127.92 292.29L124.37 282.34C124.297 282.139 124.163 281.966 123.987 281.846C123.811 281.726 123.602 281.664 123.39 281.67C107.46 282.3 89.9 276.38 81.28 262.33C75.44 252.8 78.37 237.94 82.99 228.29" stroke="#5F6A8A" stroke-width="2"/>
<path d="M82.99 228.29C88.3234 225.403 94.16 223.82 100.5 223.54" stroke="#764EA7" stroke-width="2"/>
<path d="M100.5 223.54C102.653 228.02 105.677 231.83 109.57 234.97C111.69 236.68 118.74 240.63 121.25 237.29" stroke="#677692" stroke-width="2"/>
<path d="M121.25 237.29L122.96 236.75" stroke="#A66537" stroke-width="2"/>
<path d="M122.96 236.75L123.29 237.25" stroke="#843455" stroke-width="2"/>
<path d="M123.29 237.25C122.903 237.757 122.433 238.12 121.88 238.34C121.7 238.407 121.544 238.528 121.432 238.687C121.32 238.845 121.256 239.034 121.25 239.23C120.81 251.01 121.723 262.43 123.99 273.49C125.61 281.43 126.14 286.55 129.75 294.22C129.81 294.347 129.843 294.486 129.845 294.627C129.847 294.768 129.818 294.908 129.762 295.038C129.705 295.167 129.621 295.284 129.515 295.379C129.41 295.474 129.285 295.546 129.15 295.59L128.52 295.8C128.355 295.855 128.208 295.953 128.092 296.082C127.976 296.212 127.896 296.37 127.86 296.54C124.81 310.43 124.96 324.3 124.47 339.8C124.397 342.027 123.987 344.137 123.24 346.13C118.18 359.72 112.2 374.03 103.42 385.67C90.59 402.71 77.71 422.77 70.21 444.44C66.27 455.82 62.88 470.99 59.46 484.2C56.93 494 56.19 502.44 56.44 512" stroke="#764EA7" stroke-width="2"/>
<path d="M442.35 241.79C438.963 236.483 434.597 232.15 429.25 228.79" stroke="#818EC8" stroke-width="2"/>
<path d="M412.16 224.48C410.667 222.98 408.523 222.313 405.73 222.48C402.403 222.68 398.993 222.847 395.5 222.98C393.727 223.047 392.397 223.847 391.51 225.38C390.957 226.333 391.213 227.437 392.28 228.69" stroke="#8D99D3" stroke-width="2"/>
<path d="M392.28 228.69C390.987 228.897 389.823 229.333 388.79 230" stroke="#B9397D" stroke-width="2"/>
<path d="M388.79 230L388.29 225.5" stroke="#CC7974" stroke-width="2"/>
<path d="M388.29 225.5C388.343 211.9 386.817 198.483 383.71 185.25" stroke="#AA5795" stroke-width="2"/>
<path d="M383.71 185.25L382.54 181" stroke="#915FB2" stroke-width="2"/>
<path d="M382.54 181C381.767 178.053 381.087 176.317 380.5 175.79C378.14 173.66 379.98 181.4 380.03 181.75" stroke="#CC7974" stroke-width="2"/>
<path d="M380.03 181.75C382.043 196.57 383.56 211.437 384.58 226.35C384.85 230.28 383.85 237.94 389.75 238.21" stroke="#915FB2" stroke-width="2"/>
<path d="M449.94 512C448.98 501.61 448.24 490.3 445.91 480.77C440.51 458.63 430.59 442.87 416.92 424.95C415.933 423.657 414.897 422.5 413.81 421.48C411.637 419.447 411.1 419.813 412.2 422.58C417.947 437.04 422.09 451.953 424.63 467.32C427.083 482.147 429.02 497.04 430.44 512" stroke="#764EA7" stroke-width="2"/>
<path d="M389.66 511.98C391.527 508.74 392.75 505.41 393.33 501.99C393.363 501.807 393.344 501.618 393.275 501.444C393.206 501.271 393.09 501.121 392.94 501.01C386.087 495.917 381.347 489.543 378.72 481.89C374.7 470.16 377.68 456.43 375.01 444.08C373.66 437.86 366.94 430.83 362.6 426.3C362.432 426.125 362.212 426.016 361.98 425.99L350.5 424.81C350.291 424.79 350.093 424.703 349.935 424.563C349.777 424.423 349.667 424.237 349.62 424.03C347.78 415.56 347.48 408.8 346.92 398.38C346.06 382.42 346.467 366.483 348.14 350.57C348.233 349.71 348.357 347.093 348.51 342.72C348.513 342.683 348.508 342.647 348.495 342.618C348.482 342.589 348.463 342.569 348.44 342.56L348.17 342.47C348.122 342.451 348.069 342.452 348.021 342.472C347.972 342.492 347.933 342.531 347.91 342.58C344.217 350.88 340.49 359.17 336.73 367.45C334.31 372.76 331.95 374.68 327.68 378.43C323.607 382.017 320.257 387.19 317.63 393.95C317.39 394.577 317.343 394.613 317.49 394.06C319.757 385.56 321.51 376.957 322.75 368.25C323.697 361.623 326.047 351.82 329.8 338.84C329.845 338.687 329.853 338.526 329.823 338.37C329.793 338.213 329.725 338.067 329.626 337.942C329.527 337.817 329.399 337.718 329.253 337.654C329.108 337.589 328.949 337.56 328.79 337.57L325.54 337.75" stroke="#764EA7" stroke-width="2"/>
<path d="M325.54 337.75L325.57 329.42" stroke="#C1A0D9" stroke-width="2"/>
<path d="M325.57 329.42L335.12 320.92C337.947 318.407 337.653 317.97 334.24 319.61L330.4 321.45C330.25 321.522 330.085 321.555 329.919 321.546C329.753 321.538 329.592 321.488 329.45 321.402C329.308 321.315 329.19 321.195 329.106 321.052C329.022 320.908 328.975 320.746 328.97 320.58C328.943 319.787 328.657 318.993 328.11 318.2" stroke="#6A41AA" stroke-width="2"/>
<path d="M328.11 318.2C328.763 314.567 328.927 310.883 328.6 307.15" stroke="#C1A0D9" stroke-width="2"/>
<path d="M328.6 307.15L336.2 296.17C336.242 296.112 336.265 296.044 336.265 295.978C336.265 295.912 336.242 295.852 336.2 295.81L336.06 295.68C336.009 295.631 335.93 295.615 335.838 295.635C335.747 295.656 335.65 295.711 335.57 295.79L328.25 303.04" stroke="#683E9B" stroke-width="2"/>
<path d="M328.25 303.04C327.183 303.36 326.1 303.333 325 302.96" stroke="#7245B9" stroke-width="2"/>
<path d="M325 302.96C327.8 297.92 329.48 292.547 330.04 286.84C330.24 284.86 329.76 284.68 328.6 286.3C327.253 288.18 325.923 290.073 324.61 291.98C320.52 297.94 312.4 300.96 305.6 302.19" stroke="#C1A0D9" stroke-width="2"/>
<path d="M305.6 302.19C308.18 296.89 312.16 291.37 314.24 287.05C327.97 258.45 314.41 219.78 296.88 195.54C294.673 192.493 292.277 189.613 289.69 186.9C282.51 179.36 282.253 179.587 288.92 187.58C292.46 191.82 295.56 196.303 298.22 201.03C309.58 221.26 318.84 247.01 315.74 270.75C314.253 282.097 309.897 291.793 302.67 299.84" stroke="#7C44D3" stroke-width="2"/>
<path d="M302.67 299.84C293.337 299.513 285.43 297.243 278.95 293.03C273.317 289.363 269.18 286.89 266.54 285.61" stroke="#C1A0D9" stroke-width="2"/>
<path d="M266.54 285.61C264.133 282.997 261.713 280.437 259.28 277.93C244.54 262.78 234.48 242.4 229.29 221.99C228.997 220.83 228.68 219.173 228.34 217.02C227.233 210.02 226.703 210.06 226.75 217.14C226.763 220.433 227 223.72 227.46 227" stroke="#8047C8" stroke-width="2"/>
<path d="M227.46 227C227.08 225.62 226.31 226.28 226.2 227.15C225.72 230.843 225.347 234.533 225.08 238.22" stroke="#C1A0D9" stroke-width="2"/>
<path d="M225.08 238.22C224.28 240.273 223.883 242.44 223.89 244.72C223.897 244.82 223.853 244.837 223.76 244.77C223.693 244.723 223.607 244.7 223.5 244.7C223.457 244.701 223.414 244.694 223.375 244.678C223.335 244.662 223.298 244.638 223.267 244.607C223.237 244.576 223.212 244.539 223.195 244.499C223.179 244.458 223.17 244.414 223.17 244.37C223.17 243.67 222.63 231.82 221.58 232.82C221.483 232.917 221.426 233.042 221.42 233.17C220.84 245.94 223.07 267.85 231.2 278.28C234.1 282 236.013 284.933 236.94 287.08C238.64 291.02 230.71 282.87 229.33 281.35C229.217 281.23 229.08 281.14 228.92 281.08C227.98 280.753 227.717 280.22 228.13 279.48C228.215 279.328 228.258 279.156 228.254 278.982C228.251 278.808 228.201 278.638 228.11 278.49C222.597 269.237 219.313 259.24 218.26 248.5C218.213 247.98 218.063 247.85 217.81 248.11C217.772 248.148 217.742 248.193 217.721 248.243C217.701 248.293 217.69 248.346 217.69 248.4C217.77 258.15 219.95 266.15 224.46 274.69C225.473 276.603 226.24 278.623 226.76 280.75" stroke="#7F4CD3" stroke-width="2"/>
<path d="M226.76 280.75C223.45 278.19 222.67 281.1 223.13 283.6C224.05 288.533 226.01 292.99 229.01 296.97C229.79 298.003 229.533 298.537 228.24 298.57C223.093 298.703 217.97 298.417 212.87 297.71C212.805 297.701 212.739 297.711 212.681 297.74C212.622 297.768 212.573 297.814 212.54 297.87C212.48 297.977 212.453 298.103 212.46 298.25" stroke="#C1A0D9" stroke-width="2"/>
<path d="M212.46 298.25C211.133 298.777 210.98 299.623 212 300.79" stroke="#7946C4" stroke-width="2"/>
<path d="M212 300.79C199.58 303.1 187.99 296.92 182.3 286.02C181.03 283.6 180.38 285.13 180.56 286.57C180.967 289.803 181.363 293.017 181.75 296.21" stroke="#C1A0D9" stroke-width="2"/>
<path d="M181.75 296.21C180.18 297.72 182.18 300.34 180 300.29" stroke="#7946C4" stroke-width="2"/>
<path d="M180 300.29L178.95 299.48C176.357 297.46 175.973 297.817 177.8 300.55L182.2 307.16" stroke="#6A41AA" stroke-width="2"/>
<path d="M182.2 307.16C181.5 309 181.503 310.863 182.21 312.75" stroke="#C1A0D9" stroke-width="2"/>
<path d="M182.21 312.75C181.637 315.037 181.523 317.36 181.87 319.72C182.043 320.88 181.633 321.143 180.64 320.51C178.467 319.103 176.083 318.353 173.49 318.26C171.783 318.2 171.707 318.527 173.26 319.24C173.513 319.36 173.767 319.47 174.02 319.57C177.61 321 182.27 325.79 185.54 328.25" stroke="#6A41AA" stroke-width="2"/>
<path d="M185.54 328.25L187.5 337.94" stroke="#C1A0D9" stroke-width="2"/>
<path d="M187.5 337.94C186.16 337.547 184.833 337.257 183.52 337.07C179.15 336.46 181.48 339.1 181.81 340.77C184.037 351.99 185.623 359.463 186.57 363.19C187.25 365.89 187.653 367.82 187.78 368.98C187.805 369.236 187.927 369.472 188.12 369.64L188.38 369.85C188.492 369.947 188.582 370.067 188.642 370.202C188.703 370.337 188.733 370.483 188.73 370.63C188.71 371.99 188.937 373.3 189.41 374.56C189.98 376.09 189.54 377.3 189.76 378.5C190.873 384.387 192.907 389.917 195.86 395.09C196.107 395.517 196.05 395.737 195.69 395.75C195.627 395.753 195.565 395.738 195.51 395.706C195.455 395.674 195.41 395.627 195.38 395.57C192.4 389.543 188.943 383.81 185.01 378.37C183.33 376.06 179.85 375.18 178.7 373.3C175.147 367.487 170.12 357.617 163.62 343.69C163.067 342.503 162.663 342.553 162.41 343.84C162.363 344.107 162.36 344.413 162.4 344.76C165.22 368.073 165.88 391.9 164.38 416.24C164.22 418.827 163.93 421.29 163.51 423.63C163.472 423.84 163.369 424.032 163.217 424.179C163.064 424.327 162.869 424.421 162.66 424.45C159.567 424.863 156.46 425.31 153.34 425.79C146.61 426.81 143.23 434.53 139.03 438.86C135.73 442.26 135.47 447.99 135.26 452.75C134.92 460.397 134.587 468.04 134.26 475.68C133.87 484.81 126.88 494.63 120.51 500.74C118.997 502.193 118.59 503.847 119.29 505.7C120.11 507.88 121.397 509.633 123.15 510.96C123.717 511.387 123.657 511.687 122.97 511.86L122.44 512" stroke="#764EA7" stroke-width="2"/>
<path d="M80.94 512C82.3067 488.747 85.81 465.827 91.45 443.24C92.35 439.627 95.0533 431.677 99.56 419.39C99.572 419.352 99.5708 419.308 99.5567 419.266C99.5425 419.223 99.5159 419.183 99.48 419.15L99.28 418.95C99.2427 418.914 99.1936 418.893 99.1419 418.891C99.0903 418.89 99.0397 418.907 99 418.94C97.8867 419.86 96.9033 420.897 96.05 422.05C78.94 445.2 65.56 469.04 62.84 498.32C62.4133 502.873 62.03 507.433 61.69 512" stroke="#764EA7" stroke-width="2"/>
<path d="M123.29 237.25C126.23 236.18 126.49 232.04 126.6 229.26C127.073 217.253 127.723 205.227 128.55 193.18" stroke="#AA5795" stroke-width="2"/>
<path d="M128.55 193.18C129.597 187.567 130.653 181.943 131.72 176.31C132.24 173.61 130.35 174.01 129.8 176.11C127.227 185.857 125.417 195.74 124.37 205.76" stroke="#CC8878" stroke-width="2"/>
<path d="M124.37 205.76C123.09 211.473 122.287 216.933 121.96 222.14" stroke="#915FB2" stroke-width="2"/>
<path d="M121.96 222.14C114.753 221.447 107.6 221.913 100.5 223.54" stroke="#8D99D3" stroke-width="2"/>
<path d="M82.99 228.29C78.0767 230.697 74.1534 234.153 71.22 238.66" stroke="#858DCA" stroke-width="2"/>
<path d="M377.279 155.201C377.099 154.387 376.728 153.623 376.187 152.954C375.647 152.285 374.947 151.723 374.129 151.3C373.31 150.878 372.389 150.603 371.417 150.491C370.446 150.38 369.443 150.434 368.466 150.651C367.489 150.867 366.557 151.242 365.723 151.754C364.89 152.265 364.171 152.904 363.608 153.633C363.045 154.361 362.648 155.166 362.441 156.001C362.234 156.836 362.22 157.685 362.401 158.499C362.581 159.314 362.952 160.077 363.493 160.746C364.033 161.416 364.733 161.977 365.551 162.4C366.37 162.823 367.291 163.097 368.263 163.209C369.235 163.32 370.237 163.266 371.214 163.05C372.191 162.833 373.123 162.458 373.957 161.947C374.79 161.435 375.509 160.796 376.072 160.068C376.636 159.339 377.032 158.534 377.239 157.699C377.446 156.864 377.46 156.015 377.279 155.201Z" stroke="#4E3974" stroke-width="2"/>
<path d="M149.175 155.153C148.943 154.351 148.539 153.607 147.986 152.963C147.433 152.32 146.742 151.789 145.952 151.403C145.162 151.016 144.289 150.781 143.382 150.71C142.475 150.639 141.552 150.734 140.666 150.989C139.781 151.245 138.949 151.656 138.219 152.2C137.49 152.743 136.876 153.408 136.414 154.156C135.951 154.904 135.649 155.721 135.524 156.56C135.399 157.399 135.454 158.244 135.685 159.047C135.917 159.849 136.321 160.594 136.874 161.237C137.427 161.881 138.118 162.411 138.908 162.797C139.698 163.184 140.571 163.42 141.478 163.491C142.385 163.561 143.308 163.466 144.194 163.211C145.079 162.955 145.911 162.544 146.641 162.001C147.37 161.457 147.984 160.793 148.446 160.044C148.909 159.296 149.211 158.479 149.336 157.64C149.461 156.801 149.406 155.956 149.175 155.153Z" stroke="#4E3974" stroke-width="2"/>
<path d="M201.41 287.32C202.2 288.49 211.95 299.35 212.9 296.9C212.935 296.805 212.942 296.702 212.919 296.602C212.896 296.503 212.844 296.412 212.77 296.34C194.03 278.5 192.16 254.87 197.48 231.24C199.073 224.187 201.093 217.117 203.54 210.03C207.347 198.99 206.85 198.793 202.05 209.44C199.203 215.753 196.83 222.27 194.93 228.99C189.39 248.6 189.63 269.95 201.41 287.32Z" stroke="#7946C4" stroke-width="2"/>
<path d="M373.659 154.071C373.315 153.549 372.866 153.104 372.337 152.761C371.808 152.418 371.21 152.184 370.577 152.072C369.943 151.96 369.287 151.973 368.646 152.109C368.005 152.245 367.391 152.502 366.84 152.866C366.288 153.23 365.81 153.693 365.432 154.228C365.054 154.764 364.784 155.362 364.638 155.988C364.491 156.614 364.471 157.256 364.578 157.877C364.684 158.499 364.917 159.087 365.261 159.609C365.605 160.131 366.054 160.576 366.583 160.919C367.112 161.262 367.71 161.496 368.343 161.608C368.977 161.72 369.633 161.707 370.274 161.571C370.915 161.435 371.529 161.178 372.08 160.814C372.632 160.45 373.11 159.987 373.488 159.452C373.866 158.916 374.136 158.318 374.282 157.692C374.429 157.066 374.449 156.424 374.342 155.803C374.236 155.181 374.003 154.593 373.659 154.071Z" stroke="#6E6A6C" stroke-width="2"/>
<path d="M146.458 154.074C146.109 153.58 145.659 153.166 145.133 152.854C144.606 152.543 144.013 152.34 143.388 152.258C142.763 152.176 142.119 152.216 141.491 152.376C140.863 152.537 140.264 152.813 139.728 153.191C139.193 153.569 138.731 154.04 138.37 154.578C138.008 155.116 137.754 155.71 137.622 156.326C137.489 156.942 137.481 157.568 137.598 158.169C137.715 158.77 137.954 159.333 138.302 159.826C138.651 160.32 139.101 160.734 139.628 161.046C140.154 161.357 140.747 161.56 141.372 161.642C141.997 161.724 142.641 161.684 143.269 161.524C143.897 161.363 144.496 161.087 145.032 160.709C145.567 160.331 146.029 159.86 146.39 159.322C146.752 158.784 147.006 158.19 147.138 157.574C147.271 156.958 147.279 156.332 147.162 155.731C147.045 155.13 146.806 154.567 146.458 154.074Z" stroke="#6E6A6C" stroke-width="2"/>
<path d="M128.55 193.18C126.443 206.513 125.403 219.933 125.43 233.44C125.43 233.673 125.345 233.9 125.19 234.08L122.96 236.75" stroke="#DA6E26" stroke-width="2"/>
<path d="M121.25 237.29C120.03 237.197 119.113 236.683 118.5 235.75" stroke="#BDB063" stroke-width="2"/>
<path d="M118.5 235.75C123.54 235.337 124.363 233.133 120.97 229.14" stroke="#D15215" stroke-width="2"/>
<path d="M120.97 229.14L122.16 228.86C122.368 228.811 122.555 228.697 122.693 228.533C122.832 228.369 122.915 228.165 122.93 227.95L124.37 205.76" stroke="#C17643" stroke-width="2"/>
<path d="M382.54 181C382.4 182.3 382.567 183.55 383.04 184.75" stroke="#C1673F" stroke-width="2"/>
<path d="M383.04 184.75C385.63 199.22 387.45 211.28 386.99 225.3C386.983 225.6 387.013 225.893 387.08 226.18C387.96 229.847 388.363 229.62 388.29 225.5" stroke="#DA5F22" stroke-width="2"/>
<path d="M388.79 230C386.443 235.04 387.753 236.977 392.72 235.81" stroke="#E9400A" stroke-width="2"/>
<path d="M392.72 235.81C392.887 236.163 392.763 236.98 392.35 238.26" stroke="#BDA160" stroke-width="2"/>
<path d="M390 237.71C387.53 236.84 384.29 234.7 385.64 231.82C385.737 231.62 385.762 231.393 385.71 231.18C385.357 229.633 385.19 228.243 385.21 227.01C385.41 216.33 384.16 208.1 382.65 195.62C382.083 190.953 381.21 186.33 380.03 181.75" stroke="#C1673F" stroke-width="2"/>
<path d="M305.6 302.19C302.78 302.843 301.803 302.06 302.67 299.84" stroke="#A173C4" stroke-width="2"/>
<path d="M383.71 185.25L383.04 184.75" stroke="#9F4560" stroke-width="2"/>
<path d="M120.97 229.14C120.263 228.767 119.44 228.623 118.5 228.71" stroke="#97294F" stroke-width="2"/>
<path d="M118.5 228.71C118.707 227.53 119.343 227.137 120.41 227.53C120.557 227.583 120.714 227.601 120.869 227.582C121.024 227.562 121.173 227.507 121.303 227.419C121.433 227.332 121.542 227.215 121.619 227.078C121.697 226.941 121.742 226.787 121.75 226.63L121.96 222.14" stroke="#82879E" stroke-width="2"/>
<path d="M266.54 285.61C255.847 280.477 247.5 273.093 241.5 263.46C235.13 253.25 229.8 239.54 227.46 227" stroke="#A476B9" stroke-width="2"/>
<path d="M118.5 228.71C117.147 229.723 116.577 231.07 116.79 232.75" stroke="#936370" stroke-width="2"/>
<path d="M116.79 232.75C116.057 234.39 116.627 235.39 118.5 235.75" stroke="#ADCACB" stroke-width="2"/>
<path d="M392.72 235.81C394.713 232.683 394.567 230.31 392.28 228.69" stroke="#AA6168" stroke-width="2"/>
<path d="M325 302.96L319.25 309.71" stroke="#9673AA" stroke-width="2"/>
<path d="M319.25 309.71C318.137 311.057 316.933 312.303 315.64 313.45C313.773 315.103 314.03 315.557 316.41 314.81C321.017 313.37 325.08 310.817 328.6 307.15" stroke="#8C6C8D" stroke-width="2"/>
<path d="M328.11 318.2C326.34 326.48 313.89 330.93 306.51 332.58C304.597 333.007 304.577 333.307 306.45 333.48C311.99 334 320.31 331.54 325.57 329.42" stroke="#8F6F9B" stroke-width="2"/>
<path d="M325.54 337.75C318.13 355.33 304.58 362.38 289.24 371.7C286.54 373.34 285.09 375.05 284.52 378C282.87 386.59 281.35 396.05 288.26 403.26" stroke="#9B7D98" stroke-width="2"/>
<path d="M288.26 403.26C278.74 410.713 268.757 417.593 258.31 423.9" stroke="#A9BCBC" stroke-width="2"/>
<path d="M258.31 423.9L255.85 424.57C255.675 424.619 255.516 424.714 255.391 424.846C255.266 424.978 255.179 425.142 255.14 425.32C255.107 425.493 255.063 425.663 255.01 425.83C254.577 427.25 254.167 427.243 253.78 425.81C253.58 425.07 253.057 424.5 252.21 424.1" stroke="#9B7D98" stroke-width="2"/>
<path d="M252.21 424.1C239.05 415.76 232.64 412.08 224.38 401.96" stroke="#A9BCBC" stroke-width="2"/>
<path d="M224.38 401.96C228.173 399.16 230.257 395.577 230.63 391.21C231.11 385.62 230.05 374.73 224.43 371.56C209.92 363.39 193.99 355.18 187.5 337.94" stroke="#9B7D98" stroke-width="2"/>
<path d="M185.54 328.25C190.693 331.17 196.22 332.79 202.12 333.11C204.37 333.23 202.31 332.06 201.82 331.94C196.78 330.74 186.26 326.25 183.96 321.28C182.933 319.053 182.35 316.21 182.21 312.75" stroke="#8F6F9B" stroke-width="2"/>
<path d="M182.2 307.16C184.933 310.113 188.26 312.253 192.18 313.58C193.8 314.13 199.4 316.25 199.26 315.41C199.247 315.34 199.211 315.279 199.16 315.24L189.25 307.96" stroke="#8F6F9B" stroke-width="2"/>
<path d="M189.25 307.96C185.703 304.687 183.203 300.77 181.75 296.21" stroke="#9D74B6" stroke-width="2"/>
<path d="M212 300.79C214.02 300.543 214.173 299.697 212.46 298.25" stroke="#9D74B6" stroke-width="2"/>
<path d="M226.76 280.75C230.42 286.02 236 288.84 239.89 291.86C240.69 292.48 247.82 298.05 248.14 297.69C248.158 297.668 248.172 297.644 248.18 297.617C248.188 297.59 248.191 297.562 248.188 297.534C248.186 297.506 248.177 297.479 248.164 297.454C248.15 297.429 248.132 297.407 248.11 297.39C231.93 284.34 226.27 257.84 225.08 238.22" stroke="#A37BC4" stroke-width="2"/>
<path d="M118.5 235.75C118.367 234.523 117.797 233.523 116.79 232.75" stroke="#C16C7C" stroke-width="2"/>
<path d="M319.25 309.71C321.117 310.923 322.887 310.54 324.56 308.56C326.473 306.307 327.703 304.467 328.25 303.04" stroke="#3D116D" stroke-width="2"/>
<path d="M189.25 307.96C185.46 310.09 182.28 303.88 180 300.29" stroke="#471587" stroke-width="2"/>
<path d="M224.38 401.96C221.307 400.48 219.313 398.417 218.4 395.77C217.66 393.637 216.64 393.497 215.34 395.35C208.927 404.457 200.707 411.487 190.68 416.44C190.501 416.528 190.352 416.668 190.254 416.843C190.156 417.018 190.113 417.219 190.13 417.42C191.26 431.74 215.23 458.43 229.31 461.47C229.445 461.501 229.585 461.503 229.721 461.476C229.858 461.448 229.987 461.392 230.1 461.31C231.52 460.31 232.91 458.633 234.27 456.28C240.363 445.693 246.343 434.967 252.21 424.1" stroke="#5F6A8A" stroke-width="2"/>
<path d="M258.31 423.9C258.597 426.04 259.387 427.863 260.68 429.37C261.96 430.85 262.787 431.96 263.16 432.7C268.1 442.4 273.507 451.87 279.38 461.11C279.497 461.298 279.673 461.441 279.88 461.517C280.086 461.594 280.312 461.598 280.52 461.53C300.08 455.26 314.68 436.71 321.4 418.15C321.477 417.939 321.481 417.709 321.41 417.495C321.339 417.281 321.198 417.096 321.01 416.97C316.743 414.163 312.543 411.373 308.41 408.6C302.96 404.94 299.9 399.36 295.68 394.38C294.873 393.427 294.297 393.55 293.95 394.75C293.09 397.743 291.193 400.58 288.26 403.26" stroke="#5F6A8A" stroke-width="2"/>
<path d="M294.88 445.03C290.367 447.123 286.02 449.517 281.84 452.21C281.628 452.347 281.371 452.398 281.123 452.353C280.874 452.309 280.652 452.172 280.5 451.97L277.83 448.4C277.802 448.364 277.767 448.334 277.727 448.315C277.687 448.296 277.643 448.287 277.6 448.29C277.313 448.317 277.25 448.5 277.41 448.84C278.39 450.913 279.483 452.63 280.69 453.99C280.849 454.17 281.067 454.288 281.304 454.321C281.541 454.354 281.781 454.3 281.98 454.17C286.907 450.97 292.023 448.113 297.33 445.6C299.203 444.707 299.92 443.647 299.48 442.42C299.047 441.227 299.463 440.76 300.73 441.02C300.87 441.051 301.017 441.051 301.159 441.018C301.3 440.985 301.434 440.921 301.55 440.83C307.95 435.9 313.33 425.01 316.36 417.66C316.947 416.233 316.74 415.373 315.74 415.08C315.495 415.007 315.231 415.032 315.003 415.149C314.776 415.267 314.602 415.468 314.52 415.71C313 420.117 310.977 424.29 308.45 428.23C308.243 428.55 307.873 429.657 307.34 431.55C307.277 431.768 307.143 431.959 306.96 432.092C306.777 432.224 306.555 432.291 306.33 432.28C306.083 432.267 305.863 432.193 305.67 432.06C305.54 431.97 305.391 431.911 305.234 431.888C305.078 431.866 304.919 431.88 304.77 431.93C303.103 432.497 302.97 433.277 304.37 434.27C304.497 434.358 304.601 434.474 304.676 434.609C304.75 434.744 304.792 434.894 304.799 435.048C304.806 435.202 304.777 435.355 304.715 435.496C304.652 435.637 304.558 435.761 304.44 435.86C301.33 438.43 297.04 440.81 295.37 444.53C295.273 444.749 295.099 444.927 294.88 445.03Z" stroke="#4F5D74" stroke-width="2"/>
<path d="M205.46 432.75C202.32 428.283 199.68 423.533 197.54 418.5" stroke="#7A7B95" stroke-width="2"/>
<path d="M197.54 418.5L197.29 415.81C197.17 414.517 196.62 414.297 195.64 415.15C195.3 415.443 195.057 415.883 194.91 416.47C194.717 417.203 194.707 417.873 194.88 418.48C197.067 426.38 201.343 433.407 207.71 439.56C213.883 445.52 220.76 450.533 228.34 454.6C228.455 454.663 228.581 454.703 228.711 454.717C228.841 454.731 228.973 454.719 229.099 454.682C229.224 454.645 229.341 454.583 229.443 454.5C229.544 454.418 229.628 454.316 229.69 454.2C230.67 452.387 231.697 450.6 232.77 448.84C233.97 446.87 232.21 448.12 231.99 448.4C230.99 449.653 230.063 450.877 229.21 452.07C229.063 452.277 228.845 452.421 228.598 452.473C228.351 452.525 228.094 452.481 227.88 452.35C224.25 450.15 216.44 445.35 214.59 441.59C214.489 441.382 214.318 441.217 214.106 441.122C213.894 441.027 213.655 441.008 213.43 441.07L212.9 441.22C212.711 441.273 212.509 441.268 212.32 441.206C212.132 441.144 211.965 441.027 211.84 440.87L205.46 432.75" stroke="#505A7E" stroke-width="2"/>
<path d="M197.54 418.5C197.67 422.15 201.77 431.84 205.46 432.75" stroke="#5D2C66" stroke-width="2"/>
<path d="M442.35 241.79C438.963 236.483 434.597 232.15 429.25 228.79C425.55 225.34 416.05 224.52 412.16 224.48C410.667 222.98 408.523 222.313 405.73 222.48C402.403 222.68 398.993 222.847 395.5 222.98C393.727 223.047 392.397 223.847 391.51 225.38C390.957 226.333 391.213 227.437 392.28 228.69C390.987 228.897 389.823 229.333 388.79 230L388.29 225.5C388.343 211.9 386.817 198.483 383.71 185.25L382.54 181C381.767 178.053 381.087 176.317 380.5 175.79C378.14 173.66 379.98 181.4 380.03 181.75C382.043 196.57 383.56 211.437 384.58 226.35C384.85 230.28 383.85 237.94 389.75 238.21C392.75 256.61 388.58 276.79 382.33 294.89C382.261 295.088 382.256 295.302 382.317 295.503C382.378 295.705 382.502 295.882 382.67 296.01L383.54 296.68C383.647 296.759 383.737 296.859 383.804 296.974C383.871 297.089 383.914 297.217 383.93 297.35C385.67 311.49 386.687 325.677 386.98 339.91C387.02 341.803 387.383 343.623 388.07 345.37C391.34 353.68 394.49 363.1 398.19 370.27C401.67 376.997 406.187 384.157 411.74 391.75C420.187 403.317 428.07 416.64 435.39 431.72C442.37 446.12 446.26 462.21 450.83 477.56C454.44 489.69 455.77 500.04 456.19 512H449.94C448.98 501.61 448.24 490.3 445.91 480.77C440.51 458.63 430.59 442.87 416.92 424.95C415.933 423.657 414.897 422.5 413.81 421.48C411.637 419.447 411.1 419.813 412.2 422.58C417.947 437.04 422.09 451.953 424.63 467.32C427.083 482.147 429.02 497.04 430.44 512L389.66 511.98C391.527 508.74 392.75 505.41 393.33 501.99C393.363 501.807 393.344 501.618 393.275 501.444C393.206 501.271 393.09 501.121 392.94 501.01C386.087 495.917 381.347 489.543 378.72 481.89C374.7 470.16 377.68 456.43 375.01 444.08C373.66 437.86 366.94 430.83 362.6 426.3C362.432 426.125 362.212 426.016 361.98 425.99L350.5 424.81C350.291 424.79 350.093 424.703 349.935 424.563C349.778 424.423 349.667 424.237 349.62 424.03C347.78 415.56 347.48 408.8 346.92 398.38C346.06 382.42 346.467 366.483 348.14 350.57C348.233 349.71 348.357 347.093 348.51 342.72C348.513 342.683 348.508 342.647 348.495 342.618C348.482 342.589 348.463 342.569 348.44 342.56L348.17 342.47C348.122 342.451 348.069 342.452 348.021 342.472C347.972 342.492 347.933 342.531 347.91 342.58C344.217 350.88 340.49 359.17 336.73 367.45C334.31 372.76 331.95 374.68 327.68 378.43C323.607 382.017 320.257 387.19 317.63 393.95C317.39 394.577 317.343 394.613 317.49 394.06C319.757 385.56 321.51 376.957 322.75 368.25C323.697 361.623 326.047 351.82 329.8 338.84C329.845 338.687 329.853 338.526 329.823 338.37C329.793 338.213 329.725 338.067 329.626 337.942C329.527 337.817 329.399 337.718 329.253 337.654C329.108 337.589 328.949 337.56 328.79 337.57L325.54 337.75L325.57 329.42L335.12 320.92C337.947 318.407 337.653 317.97 334.24 319.61L330.4 321.45C330.25 321.522 330.085 321.555 329.919 321.546C329.753 321.538 329.592 321.488 329.45 321.402C329.308 321.315 329.19 321.195 329.106 321.052C329.022 320.908 328.975 320.746 328.97 320.58C328.943 319.787 328.657 318.993 328.11 318.2C328.763 314.567 328.927 310.883 328.6 307.15L336.2 296.17C336.242 296.112 336.265 296.044 336.265 295.978C336.265 295.912 336.242 295.852 336.2 295.81L336.06 295.68C336.009 295.631 335.93 295.615 335.838 295.636C335.747 295.656 335.65 295.712 335.57 295.79L328.25 303.04C327.183 303.36 326.1 303.333 325 302.96C327.8 297.92 329.48 292.547 330.04 286.84C330.24 284.86 329.76 284.68 328.6 286.3C327.253 288.18 325.923 290.073 324.61 291.98C320.52 297.94 312.4 300.96 305.6 302.19C308.18 296.89 312.16 291.37 314.24 287.05C327.97 258.45 314.41 219.78 296.88 195.54C294.673 192.493 292.277 189.613 289.69 186.9C282.51 179.36 282.253 179.587 288.92 187.58C292.46 191.82 295.56 196.303 298.22 201.03C309.58 221.26 318.84 247.01 315.74 270.75C314.253 282.097 309.897 291.793 302.67 299.84C293.337 299.513 285.43 297.243 278.95 293.03C273.317 289.363 269.18 286.89 266.54 285.61C264.133 282.997 261.713 280.437 259.28 277.93C244.54 262.78 234.48 242.4 229.29 221.99C228.997 220.83 228.68 219.173 228.34 217.02C227.233 210.02 226.703 210.06 226.75 217.14C226.763 220.433 227 223.72 227.46 227C227.08 225.62 226.31 226.28 226.2 227.15C225.72 230.843 225.347 234.533 225.08 238.22C224.28 240.273 223.883 242.44 223.89 244.72C223.897 244.82 223.853 244.837 223.76 244.77C223.693 244.723 223.607 244.7 223.5 244.7C223.457 244.701 223.415 244.694 223.375 244.678C223.335 244.662 223.298 244.638 223.267 244.607C223.237 244.576 223.212 244.539 223.195 244.499C223.179 244.458 223.17 244.414 223.17 244.37C223.17 243.67 222.63 231.82 221.58 232.82C221.483 232.917 221.426 233.042 221.42 233.17C220.84 245.94 223.07 267.85 231.2 278.28C234.1 282 236.013 284.933 236.94 287.08C238.64 291.02 230.71 282.87 229.33 281.35C229.217 281.23 229.08 281.14 228.92 281.08C227.98 280.753 227.717 280.22 228.13 279.48C228.215 279.328 228.258 279.156 228.254 278.982C228.251 278.808 228.201 278.638 228.11 278.49C222.597 269.237 219.313 259.24 218.26 248.5C218.213 247.98 218.063 247.85 217.81 248.11C217.772 248.148 217.742 248.193 217.721 248.243C217.701 248.293 217.69 248.346 217.69 248.4C217.77 258.15 219.95 266.15 224.46 274.69C225.473 276.603 226.24 278.623 226.76 280.75C223.45 278.19 222.67 281.1 223.13 283.6C224.05 288.533 226.01 292.99 229.01 296.97C229.79 298.003 229.533 298.537 228.24 298.57C223.093 298.703 217.97 298.417 212.87 297.71C212.805 297.701 212.739 297.711 212.681 297.74C212.622 297.768 212.573 297.814 212.54 297.87C212.48 297.977 212.453 298.103 212.46 298.25C211.133 298.777 210.98 299.623 212 300.79C199.58 303.1 187.99 296.92 182.3 286.02C181.03 283.6 180.38 285.13 180.56 286.57C180.967 289.803 181.363 293.017 181.75 296.21C180.18 297.72 182.18 300.34 180 300.29L178.95 299.48C176.357 297.46 175.973 297.817 177.8 300.55L182.2 307.16C181.5 309 181.503 310.863 182.21 312.75C181.637 315.037 181.523 317.36 181.87 319.72C182.043 320.88 181.633 321.143 180.64 320.51C178.467 319.103 176.083 318.353 173.49 318.26C171.783 318.2 171.707 318.527 173.26 319.24C173.513 319.36 173.767 319.47 174.02 319.57C177.61 321 182.27 325.79 185.54 328.25L187.5 337.94C186.16 337.547 184.833 337.257 183.52 337.07C179.15 336.46 181.48 339.1 181.81 340.77C184.037 351.99 185.623 359.463 186.57 363.19C187.25 365.89 187.653 367.82 187.78 368.98C187.805 369.236 187.927 369.472 188.12 369.64L188.38 369.85C188.492 369.947 188.582 370.067 188.642 370.202C188.703 370.337 188.733 370.483 188.73 370.63C188.71 371.99 188.937 373.3 189.41 374.56C189.98 376.09 189.54 377.3 189.76 378.5C190.873 384.387 192.907 389.917 195.86 395.09C196.107 395.517 196.05 395.737 195.69 395.75C195.627 395.753 195.565 395.738 195.51 395.706C195.455 395.674 195.41 395.627 195.38 395.57C192.4 389.543 188.943 383.81 185.01 378.37C183.33 376.06 179.85 375.18 178.7 373.3C175.147 367.487 170.12 357.617 163.62 343.69C163.067 342.503 162.663 342.553 162.41 343.84C162.363 344.107 162.36 344.413 162.4 344.76C165.22 368.073 165.88 391.9 164.38 416.24C164.22 418.827 163.93 421.29 163.51 423.63C163.472 423.84 163.369 424.032 163.217 424.179C163.064 424.327 162.869 424.421 162.66 424.45C159.567 424.863 156.46 425.31 153.34 425.79C146.61 426.81 143.23 434.53 139.03 438.86C135.73 442.26 135.47 447.99 135.26 452.75C134.92 460.397 134.587 468.04 134.26 475.68C133.87 484.81 126.88 494.63 120.51 500.74C118.997 502.193 118.59 503.847 119.29 505.7C120.11 507.88 121.397 509.633 123.15 510.96C123.717 511.387 123.657 511.687 122.97 511.86L122.44 512H80.94C82.3067 488.747 85.81 465.827 91.45 443.24C92.35 439.627 95.0533 431.677 99.56 419.39C99.572 419.352 99.5709 419.308 99.5567 419.266C99.5425 419.223 99.5159 419.183 99.48 419.15L99.28 418.95C99.2428 418.914 99.1936 418.893 99.1419 418.892C99.0903 418.89 99.0397 418.907 99 418.94C97.8867 419.86 96.9034 420.897 96.05 422.05C78.94 445.2 65.56 469.04 62.84 498.32C62.4134 502.873 62.03 507.433 61.69 512H56.44C56.19 502.44 56.93 494 59.46 484.2C62.88 470.99 66.27 455.82 70.21 444.44C77.71 422.77 90.59 402.71 103.42 385.67C112.2 374.03 118.18 359.72 123.24 346.13C123.987 344.137 124.397 342.027 124.47 339.8C124.96 324.3 124.81 310.43 127.86 296.54C127.896 296.37 127.976 296.212 128.092 296.082C128.208 295.953 128.355 295.855 128.52 295.8L129.15 295.59C129.285 295.546 129.41 295.474 129.515 295.379C129.621 295.284 129.705 295.167 129.762 295.038C129.818 294.908 129.847 294.768 129.845 294.627C129.843 294.486 129.81 294.347 129.75 294.22C126.14 286.55 125.61 281.43 123.99 273.49C121.723 262.43 120.81 251.01 121.25 239.23C121.256 239.034 121.32 238.845 121.432 238.687C121.544 238.528 121.7 238.408 121.88 238.34C122.433 238.12 122.903 237.757 123.29 237.25C126.23 236.18 126.49 232.04 126.6 229.26C127.073 217.253 127.723 205.227 128.55 193.18C129.597 187.567 130.653 181.943 131.72 176.31C132.24 173.61 130.35 174.01 129.8 176.11C127.227 185.857 125.417 195.74 124.37 205.76C123.09 211.473 122.287 216.933 121.96 222.14C114.753 221.447 107.6 221.913 100.5 223.54C94.16 223.82 88.3233 225.403 82.99 228.29C78.0767 230.697 74.1534 234.153 71.22 238.66C69.3667 241.693 68.1467 244.947 67.56 248.42C67.4733 248.927 67.35 249.143 67.19 249.07C66.9144 248.952 66.6754 248.761 66.4978 248.519C66.3202 248.276 66.2105 247.99 66.18 247.69C63.97 225.97 71.23 201.04 93.95 194.11C95.23 193.723 96.6467 193.17 98.2 192.45C99.56 191.823 99.5533 191.213 98.18 190.62C96.1733 189.767 94.3267 188.9 92.64 188.02C90.3933 186.86 88.3267 185.437 86.44 183.75C65.16 164.66 66.36 135 81.73 112.45C101.65 83.23 139.07 73.8 169.03 94.43C178.97 101.27 186.797 110.227 192.51 121.3C192.624 121.521 192.817 121.691 193.05 121.776C193.284 121.861 193.541 121.855 193.77 121.76C212.25 114.25 230 109 249.87 109.87C251.57 109.94 253.2 110.71 254.76 111.33C254.968 111.408 255.196 111.418 255.41 111.36C257.4 110.77 259.47 109.94 261.54 109.85C281.573 108.997 300.597 112.813 318.61 121.3C318.827 121.401 319.074 121.421 319.304 121.356C319.535 121.292 319.736 121.148 319.87 120.95C321.883 117.923 323.923 114.923 325.99 111.95C347.44 81.04 390.68 72.83 419.19 99.05C434.77 113.38 443.7 133.93 441.43 154.96C440.777 160.973 439.247 166.317 436.84 170.99C431.853 180.677 424.033 187.667 413.38 191.96C411.88 192.567 411.913 193.073 413.48 193.48C414.993 193.873 416.647 194.29 418.44 194.73C423.46 195.957 427.767 198.427 431.36 202.14C443.18 214.33 449.33 231.57 445.6 248.15C445.555 248.364 445.439 248.557 445.27 248.7C444.403 249.413 443.963 249.103 443.95 247.77C443.937 245.35 443.403 243.357 442.35 241.79ZM377.279 155.201C377.099 154.387 376.728 153.623 376.187 152.954C375.647 152.285 374.947 151.723 374.129 151.3C373.31 150.878 372.389 150.603 371.417 150.491C370.446 150.38 369.443 150.434 368.466 150.651C367.489 150.867 366.557 151.242 365.723 151.754C364.89 152.265 364.171 152.904 363.608 153.633C363.045 154.361 362.648 155.166 362.441 156.001C362.234 156.836 362.22 157.685 362.401 158.499C362.581 159.313 362.952 160.077 363.493 160.746C364.034 161.416 364.733 161.977 365.551 162.4C366.37 162.822 367.291 163.097 368.263 163.209C369.235 163.32 370.237 163.266 371.214 163.05C372.191 162.833 373.123 162.458 373.957 161.946C374.79 161.435 375.509 160.796 376.072 160.068C376.636 159.339 377.032 158.534 377.239 157.699C377.446 156.864 377.46 156.015 377.279 155.201ZM149.175 155.153C148.943 154.351 148.539 153.607 147.986 152.963C147.433 152.32 146.742 151.789 145.952 151.403C145.162 151.016 144.289 150.781 143.382 150.71C142.475 150.639 141.552 150.734 140.666 150.989C139.781 151.245 138.949 151.656 138.219 152.2C137.49 152.743 136.876 153.408 136.414 154.156C135.951 154.904 135.649 155.721 135.524 156.56C135.399 157.399 135.454 158.244 135.685 159.047C135.917 159.849 136.321 160.593 136.874 161.237C137.427 161.881 138.118 162.411 138.908 162.797C139.698 163.184 140.571 163.42 141.478 163.49C142.385 163.561 143.308 163.466 144.194 163.211C145.079 162.955 145.911 162.544 146.641 162.001C147.37 161.457 147.984 160.793 148.446 160.044C148.909 159.296 149.211 158.479 149.336 157.64C149.461 156.801 149.406 155.956 149.175 155.153ZM201.41 287.32C202.2 288.49 211.95 299.35 212.9 296.9C212.935 296.805 212.942 296.702 212.919 296.602C212.896 296.503 212.844 296.412 212.77 296.34C194.03 278.5 192.16 254.87 197.48 231.24C199.073 224.187 201.093 217.117 203.54 210.03C207.347 198.99 206.85 198.793 202.05 209.44C199.203 215.753 196.83 222.27 194.93 228.99C189.39 248.6 189.63 269.95 201.41 287.32Z" fill="#9C71E7"/>
<path d="M377.279 155.201C377.46 156.015 377.446 156.864 377.239 157.699C377.032 158.534 376.636 159.339 376.072 160.067C375.509 160.796 374.79 161.435 373.957 161.946C373.123 162.458 372.191 162.833 371.214 163.049C370.237 163.266 369.234 163.32 368.263 163.209C367.291 163.097 366.37 162.822 365.551 162.4C364.733 161.977 364.033 161.415 363.493 160.746C362.952 160.077 362.581 159.313 362.401 158.499C362.22 157.685 362.234 156.836 362.441 156.001C362.648 155.166 363.044 154.361 363.608 153.632C364.171 152.904 364.89 152.265 365.723 151.754C366.557 151.242 367.489 150.867 368.466 150.65C369.443 150.434 370.445 150.38 371.417 150.491C372.389 150.603 373.31 150.877 374.129 151.3C374.947 151.723 375.647 152.284 376.187 152.954C376.728 153.623 377.099 154.387 377.279 155.201ZM373.659 154.071C373.315 153.549 372.866 153.104 372.337 152.761C371.808 152.418 371.21 152.184 370.577 152.072C369.943 151.96 369.287 151.973 368.646 152.109C368.005 152.245 367.391 152.502 366.84 152.866C366.288 153.23 365.81 153.693 365.432 154.228C365.054 154.764 364.784 155.362 364.638 155.988C364.491 156.614 364.471 157.256 364.578 157.877C364.684 158.499 364.917 159.087 365.261 159.609C365.605 160.131 366.054 160.576 366.583 160.919C367.112 161.262 367.71 161.496 368.343 161.608C368.977 161.72 369.633 161.707 370.274 161.571C370.915 161.435 371.529 161.177 372.08 160.814C372.632 160.45 373.11 159.987 373.488 159.452C373.866 158.916 374.136 158.318 374.282 157.692C374.429 157.066 374.449 156.424 374.342 155.803C374.235 155.181 374.003 154.593 373.659 154.071Z" fill="#000001"/>
<path d="M149.175 155.153C149.406 155.956 149.461 156.801 149.336 157.64C149.211 158.479 148.909 159.296 148.446 160.044C147.984 160.792 147.37 161.457 146.641 162C145.911 162.544 145.079 162.955 144.194 163.211C143.308 163.466 142.385 163.561 141.478 163.49C140.571 163.42 139.698 163.184 138.908 162.797C138.118 162.411 137.427 161.88 136.874 161.237C136.321 160.593 135.917 159.849 135.685 159.047C135.454 158.244 135.399 157.399 135.524 156.56C135.649 155.721 135.951 154.904 136.414 154.156C136.876 153.407 137.49 152.743 138.219 152.199C138.949 151.656 139.781 151.245 140.666 150.989C141.552 150.734 142.475 150.639 143.382 150.71C144.289 150.78 145.162 151.016 145.952 151.403C146.742 151.789 147.433 152.319 147.986 152.963C148.539 153.607 148.943 154.351 149.175 155.153ZM146.458 154.074C146.109 153.58 145.659 153.166 145.132 152.854C144.606 152.543 144.013 152.34 143.388 152.258C142.763 152.176 142.119 152.216 141.491 152.376C140.863 152.537 140.264 152.813 139.728 153.191C139.193 153.569 138.731 154.04 138.37 154.578C138.008 155.116 137.754 155.71 137.622 156.326C137.489 156.942 137.481 157.568 137.598 158.169C137.715 158.77 137.954 159.333 138.302 159.826C138.651 160.32 139.101 160.734 139.627 161.046C140.154 161.357 140.747 161.56 141.372 161.642C141.997 161.724 142.641 161.684 143.269 161.524C143.897 161.363 144.496 161.087 145.032 160.709C145.567 160.331 146.029 159.86 146.39 159.322C146.752 158.784 147.006 158.19 147.138 157.574C147.271 156.958 147.279 156.332 147.162 155.731C147.045 155.13 146.806 154.567 146.458 154.074Z" fill="#000001"/>
<path d="M372.08 160.814C374.399 159.285 375.106 156.266 373.659 154.071C372.212 151.876 369.159 151.337 366.84 152.866C364.52 154.395 363.814 157.414 365.261 159.609C366.708 161.804 369.761 162.343 372.08 160.814Z" fill="#DBD3D7"/>
<path d="M145.032 160.709C147.284 159.12 147.922 156.15 146.458 154.074C144.993 151.998 141.98 151.603 139.728 153.191C137.476 154.78 136.838 157.75 138.302 159.826C139.767 161.902 142.78 162.297 145.032 160.709Z" fill="#DBD3D7"/>
<path d="M128.55 193.18C126.443 206.513 125.403 219.933 125.43 233.44C125.43 233.673 125.345 233.9 125.19 234.08L122.96 236.75L121.25 237.29C120.03 237.197 119.113 236.683 118.5 235.75C123.54 235.337 124.363 233.133 120.97 229.14L122.16 228.86C122.368 228.811 122.555 228.697 122.693 228.533C122.832 228.369 122.915 228.165 122.93 227.95L124.37 205.76C125.417 195.74 127.227 185.857 129.8 176.11C130.35 174.01 132.24 173.61 131.72 176.31C130.653 181.943 129.597 187.567 128.55 193.18Z" fill="#FB9F08"/>
<path d="M382.54 181C382.4 182.3 382.567 183.55 383.04 184.75C385.63 199.22 387.45 211.28 386.99 225.3C386.983 225.6 387.013 225.893 387.08 226.18C387.96 229.847 388.363 229.62 388.29 225.5L388.79 230C386.443 235.04 387.753 236.977 392.72 235.81C392.887 236.163 392.763 236.98 392.35 238.26C391.483 237.867 390.7 237.683 390 237.71C387.53 236.84 384.29 234.7 385.64 231.82C385.737 231.62 385.762 231.393 385.71 231.18C385.357 229.633 385.19 228.243 385.21 227.01C385.41 216.33 384.16 208.1 382.65 195.62C382.083 190.953 381.21 186.33 380.03 181.75C379.98 181.4 378.14 173.66 380.5 175.79C381.087 176.317 381.767 178.053 382.54 181Z" fill="#FC8001"/>
<path d="M305.6 302.19C302.78 302.843 301.803 302.06 302.67 299.84C309.897 291.793 314.253 282.097 315.74 270.75C318.84 247.01 309.58 221.26 298.22 201.03C295.56 196.303 292.46 191.82 288.92 187.58C282.253 179.587 282.51 179.36 289.69 186.9C292.277 189.613 294.673 192.493 296.88 195.54C314.41 219.78 327.97 258.45 314.24 287.05C312.16 291.37 308.18 296.89 305.6 302.19Z" fill="#5C17BE"/>
<path d="M382.54 181L383.71 185.25L383.04 184.75C382.567 183.55 382.4 182.3 382.54 181Z" fill="#864D7D"/>
<path d="M380.03 181.75C381.21 186.33 382.083 190.953 382.65 195.62C384.16 208.1 385.41 216.33 385.21 227.01C385.19 228.243 385.357 229.633 385.71 231.18C385.762 231.393 385.737 231.62 385.64 231.82C384.29 234.7 387.53 236.84 390 237.71L389.75 238.21C383.85 237.94 384.85 230.28 384.58 226.35C383.56 211.437 382.043 196.57 380.03 181.75Z" fill="#864D7D"/>
<path d="M383.04 184.75L383.71 185.25C386.817 198.483 388.343 211.9 388.29 225.5C388.363 229.62 387.96 229.847 387.08 226.18C387.013 225.893 386.983 225.6 386.99 225.3C387.45 211.28 385.63 199.22 383.04 184.75Z" fill="#B83D43"/>
<path d="M128.55 193.18C127.723 205.227 127.073 217.253 126.6 229.26C126.49 232.04 126.23 236.18 123.29 237.25L122.96 236.75L125.19 234.08C125.345 233.9 125.43 233.673 125.43 233.44C125.403 219.933 126.443 206.513 128.55 193.18Z" fill="#B83D43"/>
<path d="M212.9 296.9C211.95 299.35 202.2 288.49 201.41 287.32C189.63 269.95 189.39 248.6 194.93 228.99C196.83 222.27 199.203 215.753 202.05 209.44C206.85 198.793 207.347 198.99 203.54 210.03C201.093 217.117 199.073 224.187 197.48 231.24C192.16 254.87 194.03 278.5 212.77 296.34C212.844 296.412 212.896 296.503 212.919 296.602C212.942 296.702 212.935 296.805 212.9 296.9Z" fill="#551AA1"/>
<path d="M124.37 205.76L122.93 227.95C122.915 228.165 122.832 228.369 122.693 228.533C122.555 228.697 122.368 228.811 122.16 228.86L120.97 229.14C120.263 228.767 119.44 228.623 118.5 228.71C118.707 227.53 119.343 227.137 120.41 227.53C120.557 227.583 120.714 227.601 120.869 227.582C121.024 227.562 121.173 227.507 121.303 227.419C121.433 227.332 121.542 227.215 121.619 227.078C121.697 226.941 121.742 226.787 121.75 226.63L121.96 222.14C122.287 216.933 123.09 211.473 124.37 205.76Z" fill="#864D7D"/>
<path d="M266.54 285.61C255.847 280.477 247.5 273.093 241.5 263.46C235.13 253.25 229.8 239.54 227.46 227C227 223.72 226.763 220.433 226.75 217.14C226.703 210.06 227.233 210.02 228.34 217.02C228.68 219.173 228.997 220.83 229.29 221.99C234.48 242.4 244.54 262.78 259.28 277.93C261.713 280.437 264.133 282.997 266.54 285.61Z" fill="#631DA8"/>
<path d="M121.96 222.14L121.75 226.63C121.742 226.787 121.697 226.941 121.619 227.078C121.542 227.215 121.433 227.332 121.303 227.419C121.173 227.507 121.024 227.562 120.869 227.582C120.714 227.601 120.557 227.583 120.41 227.53C119.343 227.137 118.707 227.53 118.5 228.71C117.147 229.723 116.577 231.07 116.79 232.75C116.057 234.39 116.627 235.39 118.5 235.75C119.113 236.683 120.03 237.197 121.25 237.29C118.74 240.63 111.69 236.68 109.57 234.97C105.677 231.83 102.653 228.02 100.5 223.54C107.6 221.913 114.753 221.447 121.96 222.14Z" fill="#7EC1BE"/>
<path d="M412.16 224.48C407.56 232.053 400.957 236.647 392.35 238.26C392.763 236.98 392.887 236.163 392.72 235.81C394.713 232.683 394.567 230.31 392.28 228.69C391.213 227.437 390.957 226.333 391.51 225.38C392.397 223.847 393.727 223.047 395.5 222.98C398.993 222.847 402.403 222.68 405.73 222.48C408.523 222.313 410.667 222.98 412.16 224.48Z" fill="#7EC1BE"/>
<path d="M227.46 227C229.8 239.54 235.13 253.25 241.5 263.46C247.5 273.093 255.847 280.477 266.54 285.61C269.18 286.89 273.317 289.363 278.95 293.03C285.43 297.243 293.337 299.513 302.67 299.84C301.803 302.06 302.78 302.843 305.6 302.19C312.4 300.96 320.52 297.94 324.61 291.98C325.923 290.073 327.253 288.18 328.6 286.3C329.76 284.68 330.24 284.86 330.04 286.84C329.48 292.547 327.8 297.92 325 302.96L319.25 309.71C318.137 311.057 316.933 312.303 315.64 313.45C313.773 315.103 314.03 315.557 316.41 314.81C321.017 313.37 325.08 310.817 328.6 307.15C328.927 310.883 328.763 314.567 328.11 318.2C326.34 326.48 313.89 330.93 306.51 332.58C304.597 333.007 304.577 333.307 306.45 333.48C311.99 334 320.31 331.54 325.57 329.42L325.54 337.75C318.13 355.33 304.58 362.38 289.24 371.7C286.54 373.34 285.09 375.05 284.52 378C282.87 386.59 281.35 396.05 288.26 403.26C278.74 410.713 268.757 417.593 258.31 423.9L255.85 424.57C255.675 424.619 255.516 424.714 255.391 424.846C255.266 424.978 255.179 425.142 255.14 425.32C255.107 425.493 255.063 425.663 255.01 425.83C254.577 427.25 254.167 427.243 253.78 425.81C253.58 425.07 253.057 424.5 252.21 424.1C239.05 415.76 232.64 412.08 224.38 401.96C228.173 399.16 230.257 395.577 230.63 391.21C231.11 385.62 230.05 374.73 224.43 371.56C209.92 363.39 193.99 355.18 187.5 337.94L185.54 328.25C190.693 331.17 196.22 332.79 202.12 333.11C204.37 333.23 202.31 332.06 201.82 331.94C196.78 330.74 186.26 326.25 183.96 321.28C182.933 319.053 182.35 316.21 182.21 312.75C181.503 310.863 181.5 309 182.2 307.16C184.933 310.113 188.26 312.253 192.18 313.58C193.8 314.13 199.4 316.25 199.26 315.41C199.247 315.34 199.211 315.279 199.16 315.24L189.25 307.96C185.703 304.687 183.203 300.77 181.75 296.21C181.363 293.017 180.967 289.803 180.56 286.57C180.38 285.13 181.03 283.6 182.3 286.02C187.99 296.92 199.58 303.1 212 300.79C214.02 300.543 214.173 299.697 212.46 298.25C212.453 298.103 212.48 297.977 212.54 297.87C212.573 297.814 212.622 297.768 212.681 297.74C212.739 297.711 212.805 297.701 212.87 297.71C217.97 298.417 223.093 298.703 228.24 298.57C229.533 298.537 229.79 298.003 229.01 296.97C226.01 292.99 224.05 288.533 223.13 283.6C222.67 281.1 223.45 278.19 226.76 280.75C230.42 286.02 236 288.84 239.89 291.86C240.69 292.48 247.82 298.05 248.14 297.69C248.158 297.668 248.172 297.644 248.18 297.617C248.188 297.59 248.191 297.562 248.188 297.534C248.186 297.506 248.177 297.478 248.164 297.454C248.15 297.429 248.132 297.407 248.11 297.39C231.93 284.34 226.27 257.84 225.08 238.22C225.347 234.533 225.72 230.843 226.2 227.15C226.31 226.28 227.08 225.62 227.46 227Z" fill="#E5CECA"/>
<path d="M82.99 228.29C78.37 237.94 75.44 252.8 81.28 262.33C89.9 276.38 107.46 282.3 123.39 281.67C123.602 281.664 123.811 281.726 123.987 281.846C124.162 281.966 124.297 282.139 124.37 282.34L127.92 292.29C127.979 292.46 128.083 292.609 128.22 292.72C131.61 295.55 114.1 295.28 113.21 295.22C96.16 293.99 81.15 280.69 73.48 266.01C70.11 259.57 67.61 249.37 70.21 242.27C70.6367 241.11 70.9733 239.907 71.22 238.66C74.1533 234.153 78.0767 230.697 82.99 228.29Z" fill="#6DA9AD"/>
<path d="M118.5 228.71C119.44 228.623 120.263 228.767 120.97 229.14C124.363 233.133 123.54 235.337 118.5 235.75C118.367 234.523 117.797 233.523 116.79 232.75C116.577 231.07 117.147 229.723 118.5 228.71Z" fill="#A70421"/>
<path d="M392.28 228.69C394.567 230.31 394.713 232.683 392.72 235.81C387.753 236.977 386.443 235.04 388.79 230C389.823 229.333 390.987 228.897 392.28 228.69Z" fill="#D60012"/>
<path d="M429.25 228.79C434.597 232.15 438.963 236.483 442.35 241.79C443.177 246.537 443.39 249.947 442.99 252.02C437.59 280.08 412.78 299.85 383.96 295.04C383.822 295.017 383.69 294.966 383.573 294.888C383.456 294.811 383.357 294.709 383.282 294.591C383.206 294.472 383.156 294.338 383.135 294.199C383.115 294.059 383.123 293.916 383.16 293.78C384.32 289.64 385.85 285.637 387.75 281.77C387.836 281.595 387.97 281.448 388.138 281.348C388.305 281.249 388.497 281.201 388.69 281.21C406.21 281.97 428.44 276.07 433.38 256.41C436.03 245.87 433.67 238.53 429.25 228.79Z" fill="#66AAA8"/>
<path d="M225.08 238.22C226.27 257.84 231.93 284.34 248.11 297.39C248.132 297.407 248.15 297.429 248.164 297.454C248.177 297.479 248.186 297.506 248.188 297.534C248.191 297.562 248.188 297.59 248.18 297.617C248.172 297.644 248.158 297.668 248.14 297.69C247.82 298.05 240.69 292.48 239.89 291.86C236 288.84 230.42 286.02 226.76 280.75C226.24 278.623 225.473 276.603 224.46 274.69C219.95 266.15 217.77 258.15 217.69 248.4C217.69 248.346 217.701 248.293 217.721 248.243C217.742 248.193 217.772 248.148 217.81 248.11C218.063 247.85 218.213 247.98 218.26 248.5C219.313 259.24 222.597 269.237 228.11 278.49C228.201 278.638 228.251 278.808 228.254 278.982C228.258 279.156 228.215 279.328 228.13 279.48C227.717 280.22 227.98 280.753 228.92 281.08C229.08 281.14 229.217 281.23 229.33 281.35C230.71 282.87 238.64 291.02 236.94 287.08C236.013 284.933 234.1 282 231.2 278.28C223.07 267.85 220.84 245.94 221.42 233.17C221.426 233.042 221.483 232.917 221.58 232.82C222.63 231.82 223.17 243.67 223.17 244.37C223.17 244.414 223.179 244.458 223.195 244.499C223.212 244.539 223.237 244.576 223.267 244.607C223.298 244.638 223.335 244.662 223.375 244.678C223.414 244.694 223.457 244.701 223.5 244.7C223.607 244.7 223.693 244.723 223.76 244.77C223.853 244.837 223.897 244.82 223.89 244.72C223.883 242.44 224.28 240.273 225.08 238.22Z" fill="#6127BE"/>
<path d="M328.6 307.15C325.08 310.817 321.017 313.37 316.41 314.81C314.03 315.557 313.773 315.103 315.64 313.45C316.933 312.303 318.137 311.057 319.25 309.71C321.117 310.923 322.887 310.54 324.56 308.56C326.473 306.307 327.703 304.467 328.25 303.04L335.57 295.79C335.65 295.711 335.747 295.656 335.838 295.635C335.93 295.615 336.009 295.631 336.06 295.68L336.2 295.81C336.242 295.852 336.265 295.912 336.265 295.978C336.265 296.044 336.242 296.112 336.2 296.17L328.6 307.15Z" fill="#330A4F"/>
<path d="M181.75 296.21C183.203 300.77 185.703 304.687 189.25 307.96C185.46 310.09 182.28 303.88 180 300.29C182.18 300.34 180.18 297.72 181.75 296.21Z" fill="#551AA1"/>
<path d="M180 300.29C182.28 303.88 185.46 310.09 189.25 307.96L199.16 315.24C199.211 315.279 199.247 315.34 199.26 315.41C199.4 316.25 193.8 314.13 192.18 313.58C188.26 312.253 184.933 310.113 182.2 307.16L177.8 300.55C175.973 297.817 176.357 297.46 178.95 299.48L180 300.29Z" fill="#38106C"/>
<path d="M212.46 298.25C214.173 299.697 214.02 300.543 212 300.79C210.98 299.623 211.133 298.777 212.46 298.25Z" fill="#551AA1"/>
<path d="M328.25 303.04C327.703 304.467 326.473 306.307 324.56 308.56C322.887 310.54 321.117 310.923 319.25 309.71L325 302.96C326.1 303.333 327.183 303.36 328.25 303.04Z" fill="#47188A"/>
<path d="M182.21 312.75C182.35 316.21 182.933 319.053 183.96 321.28C186.26 326.25 196.78 330.74 201.82 331.94C202.31 332.06 204.37 333.23 202.12 333.11C196.22 332.79 190.693 331.17 185.54 328.25C182.27 325.79 177.61 321 174.02 319.57C173.767 319.47 173.513 319.36 173.26 319.24C171.707 318.527 171.783 318.2 173.49 318.26C176.083 318.353 178.467 319.103 180.64 320.51C181.633 321.143 182.043 320.88 181.87 319.72C181.523 317.36 181.637 315.037 182.21 312.75Z" fill="#38106C"/>
<path d="M328.11 318.2C328.657 318.993 328.943 319.787 328.97 320.58C328.975 320.746 329.022 320.908 329.106 321.052C329.19 321.195 329.308 321.315 329.45 321.402C329.592 321.488 329.753 321.538 329.919 321.546C330.085 321.555 330.25 321.521 330.4 321.45L334.24 319.61C337.653 317.97 337.947 318.407 335.12 320.92L325.57 329.42C320.31 331.54 311.99 334 306.45 333.48C304.577 333.307 304.597 333.007 306.51 332.58C313.89 330.93 326.34 326.48 328.11 318.2Z" fill="#38106C"/>
<path d="M187.5 337.94C193.99 355.18 209.92 363.39 224.43 371.56C230.05 374.73 231.11 385.62 230.63 391.21C230.257 395.577 228.173 399.16 224.38 401.96C221.307 400.48 219.313 398.417 218.4 395.77C217.66 393.637 216.64 393.497 215.34 395.35C208.927 404.457 200.707 411.487 190.68 416.44C190.501 416.528 190.352 416.668 190.254 416.843C190.156 417.018 190.113 417.219 190.13 417.42C191.26 431.74 215.23 458.43 229.31 461.47C229.445 461.501 229.585 461.503 229.721 461.476C229.858 461.448 229.987 461.391 230.1 461.31C231.52 460.31 232.91 458.633 234.27 456.28C240.363 445.693 246.343 434.967 252.21 424.1C253.057 424.5 253.58 425.07 253.78 425.81C254.167 427.243 254.577 427.25 255.01 425.83C255.063 425.663 255.107 425.493 255.14 425.32C255.179 425.142 255.266 424.978 255.391 424.846C255.516 424.714 255.675 424.619 255.85 424.57L258.31 423.9C258.597 426.04 259.387 427.863 260.68 429.37C261.96 430.85 262.787 431.96 263.16 432.7C268.1 442.4 273.507 451.87 279.38 461.11C279.497 461.298 279.673 461.441 279.88 461.517C280.086 461.593 280.312 461.598 280.52 461.53C300.08 455.26 314.68 436.71 321.4 418.15C321.477 417.939 321.481 417.708 321.41 417.494C321.339 417.28 321.198 417.096 321.01 416.97C316.743 414.163 312.543 411.373 308.41 408.6C302.96 404.94 299.9 399.36 295.68 394.38C294.873 393.427 294.297 393.55 293.95 394.75C293.09 397.743 291.193 400.58 288.26 403.26C281.35 396.05 282.87 386.59 284.52 378C285.09 375.05 286.54 373.34 289.24 371.7C304.58 362.38 318.13 355.33 325.54 337.75L328.79 337.57C328.949 337.56 329.108 337.589 329.253 337.654C329.399 337.718 329.527 337.817 329.626 337.942C329.725 338.066 329.793 338.213 329.823 338.37C329.853 338.526 329.845 338.687 329.8 338.84C326.047 351.82 323.697 361.623 322.75 368.25C321.51 376.957 319.757 385.56 317.49 394.06C317.343 394.613 317.39 394.577 317.63 393.95C320.257 387.19 323.607 382.017 327.68 378.43C331.95 374.68 334.31 372.76 336.73 367.45C340.49 359.17 344.217 350.88 347.91 342.58C347.933 342.531 347.972 342.492 348.021 342.472C348.069 342.451 348.122 342.451 348.17 342.47L348.44 342.56C348.463 342.569 348.482 342.589 348.495 342.618C348.508 342.647 348.513 342.683 348.51 342.72C348.357 347.093 348.233 349.71 348.14 350.57C346.467 366.483 346.06 382.42 346.92 398.38C347.48 408.8 347.78 415.56 349.62 424.03C349.667 424.237 349.777 424.423 349.935 424.563C350.093 424.703 350.291 424.79 350.5 424.81L361.98 425.99C362.212 426.016 362.432 426.125 362.6 426.3C366.94 430.83 373.66 437.86 375.01 444.08C377.68 456.43 374.7 470.16 378.72 481.89C381.347 489.543 386.087 495.917 392.94 501.01C393.09 501.121 393.206 501.271 393.275 501.444C393.344 501.617 393.363 501.806 393.33 501.99C392.75 505.41 391.527 508.74 389.66 511.98L122.44 512L122.97 511.86C123.657 511.687 123.717 511.387 123.15 510.96C121.397 509.633 120.11 507.88 119.29 505.7C118.59 503.847 118.997 502.193 120.51 500.74C126.88 494.63 133.87 484.81 134.26 475.68C134.587 468.04 134.92 460.397 135.26 452.75C135.47 447.99 135.73 442.26 139.03 438.86C143.23 434.53 146.61 426.81 153.34 425.79C156.46 425.31 159.567 424.863 162.66 424.45C162.869 424.421 163.064 424.327 163.217 424.179C163.369 424.032 163.472 423.84 163.51 423.63C163.93 421.29 164.22 418.827 164.38 416.24C165.88 391.9 165.22 368.073 162.4 344.76C162.36 344.413 162.363 344.107 162.41 343.84C162.663 342.553 163.067 342.503 163.62 343.69C170.12 357.617 175.147 367.487 178.7 373.3C179.85 375.18 183.33 376.06 185.01 378.37C188.943 383.81 192.4 389.543 195.38 395.57C195.41 395.627 195.455 395.674 195.51 395.706C195.565 395.738 195.627 395.753 195.69 395.75C196.05 395.737 196.107 395.517 195.86 395.09C192.907 389.917 190.873 384.387 189.76 378.5C189.54 377.3 189.98 376.09 189.41 374.56C188.937 373.3 188.71 371.99 188.73 370.63C188.733 370.483 188.703 370.337 188.642 370.202C188.582 370.067 188.492 369.947 188.38 369.85L188.12 369.64C187.927 369.472 187.805 369.236 187.78 368.98C187.653 367.82 187.25 365.89 186.57 363.19C185.623 359.463 184.037 351.99 181.81 340.77C181.48 339.1 179.15 336.46 183.52 337.07C184.833 337.257 186.16 337.547 187.5 337.94Z" fill="#502B66"/>
<path d="M258.31 423.9C268.757 417.593 278.74 410.713 288.26 403.26C291.193 400.58 293.09 397.743 293.95 394.75C294.297 393.55 294.873 393.427 295.68 394.38C299.9 399.36 302.96 404.94 308.41 408.6C312.543 411.373 316.743 414.163 321.01 416.97C321.198 417.096 321.339 417.281 321.41 417.495C321.481 417.709 321.477 417.939 321.4 418.15C314.68 436.71 300.08 455.26 280.52 461.53C280.312 461.598 280.086 461.594 279.88 461.517C279.673 461.441 279.497 461.298 279.38 461.11C273.507 451.87 268.1 442.4 263.16 432.7C262.787 431.96 261.96 430.85 260.68 429.37C259.387 427.863 258.597 426.04 258.31 423.9ZM294.88 445.03C290.367 447.123 286.02 449.517 281.84 452.21C281.628 452.347 281.371 452.398 281.123 452.353C280.874 452.309 280.652 452.172 280.5 451.97L277.83 448.4C277.802 448.364 277.767 448.334 277.727 448.315C277.687 448.296 277.643 448.287 277.6 448.29C277.313 448.317 277.25 448.5 277.41 448.84C278.39 450.913 279.483 452.63 280.69 453.99C280.849 454.17 281.067 454.288 281.304 454.321C281.541 454.354 281.781 454.3 281.98 454.17C286.907 450.97 292.023 448.113 297.33 445.6C299.203 444.707 299.92 443.647 299.48 442.42C299.047 441.227 299.463 440.76 300.73 441.02C300.87 441.051 301.017 441.051 301.159 441.018C301.3 440.985 301.434 440.921 301.55 440.83C307.95 435.9 313.33 425.01 316.36 417.66C316.947 416.233 316.74 415.373 315.74 415.08C315.495 415.007 315.23 415.032 315.003 415.149C314.776 415.267 314.602 415.468 314.52 415.71C313 420.117 310.977 424.29 308.45 428.23C308.243 428.55 307.873 429.657 307.34 431.55C307.277 431.768 307.143 431.959 306.96 432.092C306.777 432.224 306.555 432.291 306.33 432.28C306.083 432.267 305.863 432.193 305.67 432.06C305.54 431.97 305.391 431.911 305.234 431.888C305.078 431.866 304.919 431.88 304.77 431.93C303.103 432.497 302.97 433.277 304.37 434.27C304.497 434.358 304.601 434.474 304.676 434.609C304.75 434.744 304.792 434.894 304.799 435.048C304.806 435.202 304.777 435.355 304.715 435.496C304.652 435.637 304.558 435.761 304.44 435.86C301.33 438.43 297.04 440.81 295.37 444.53C295.273 444.749 295.099 444.927 294.88 445.03Z" fill="#6DA9AD"/>
<path d="M224.38 401.96C232.64 412.08 239.05 415.76 252.21 424.1C246.343 434.967 240.363 445.693 234.27 456.28C232.91 458.633 231.52 460.31 230.1 461.31C229.987 461.392 229.858 461.448 229.721 461.476C229.585 461.503 229.445 461.501 229.31 461.47C215.23 458.43 191.26 431.74 190.13 417.42C190.113 417.219 190.156 417.018 190.254 416.843C190.352 416.668 190.501 416.528 190.68 416.44C200.707 411.487 208.927 404.457 215.34 395.35C216.64 393.497 217.66 393.637 218.4 395.77C219.313 398.417 221.307 400.48 224.38 401.96ZM205.46 432.75C202.32 428.283 199.68 423.533 197.54 418.5L197.29 415.81C197.17 414.517 196.62 414.297 195.64 415.15C195.3 415.443 195.057 415.883 194.91 416.47C194.717 417.203 194.707 417.873 194.88 418.48C197.067 426.38 201.343 433.407 207.71 439.56C213.883 445.52 220.76 450.533 228.34 454.6C228.455 454.663 228.581 454.703 228.711 454.717C228.841 454.731 228.973 454.719 229.099 454.682C229.224 454.645 229.341 454.583 229.443 454.5C229.544 454.417 229.628 454.315 229.69 454.2C230.67 452.387 231.697 450.6 232.77 448.84C233.97 446.87 232.21 448.12 231.99 448.4C230.99 449.653 230.063 450.877 229.21 452.07C229.063 452.277 228.845 452.421 228.598 452.473C228.351 452.525 228.094 452.481 227.88 452.35C224.25 450.15 216.44 445.35 214.59 441.59C214.489 441.382 214.318 441.217 214.106 441.122C213.894 441.027 213.655 441.008 213.43 441.07L212.9 441.22C212.711 441.273 212.509 441.268 212.32 441.206C212.132 441.143 211.965 441.027 211.84 440.87L205.46 432.75Z" fill="#6DA9AD"/>
<path d="M197.54 418.5C197.67 422.15 201.77 431.84 205.46 432.75L211.84 440.87C211.965 441.027 212.132 441.143 212.32 441.206C212.509 441.268 212.711 441.273 212.9 441.22L213.43 441.07C213.655 441.008 213.894 441.027 214.106 441.121C214.318 441.216 214.489 441.382 214.59 441.59C216.44 445.35 224.25 450.15 227.88 452.35C228.094 452.481 228.351 452.525 228.598 452.473C228.845 452.421 229.063 452.277 229.21 452.07C230.063 450.877 230.99 449.653 231.99 448.4C232.21 448.12 233.97 446.87 232.77 448.84C231.697 450.6 230.67 452.387 229.69 454.2C229.628 454.315 229.544 454.417 229.443 454.5C229.341 454.583 229.224 454.645 229.098 454.682C228.973 454.719 228.841 454.731 228.711 454.717C228.581 454.703 228.455 454.663 228.34 454.6C220.76 450.533 213.883 445.52 207.71 439.56C201.343 433.407 197.067 426.38 194.88 418.48C194.707 417.873 194.717 417.203 194.91 416.47C195.057 415.883 195.3 415.443 195.64 415.15C196.62 414.297 197.17 414.517 197.29 415.81L197.54 418.5Z" fill="#330A4F"/>
<path d="M295.37 444.53C297.04 440.81 301.33 438.43 304.44 435.86C304.558 435.761 304.652 435.637 304.715 435.496C304.777 435.355 304.806 435.202 304.799 435.048C304.792 434.894 304.75 434.744 304.676 434.609C304.601 434.474 304.497 434.358 304.37 434.27C302.97 433.277 303.103 432.497 304.77 431.93C304.919 431.88 305.078 431.866 305.234 431.888C305.391 431.911 305.54 431.97 305.67 432.06C305.863 432.193 306.083 432.267 306.33 432.28C306.555 432.291 306.777 432.224 306.96 432.092C307.143 431.959 307.277 431.768 307.34 431.55C307.873 429.657 308.243 428.55 308.45 428.23C310.977 424.29 313 420.117 314.52 415.71C314.602 415.468 314.776 415.267 315.003 415.149C315.23 415.032 315.495 415.007 315.74 415.08C316.74 415.373 316.947 416.233 316.36 417.66C313.33 425.01 307.95 435.9 301.55 440.83C301.434 440.921 301.3 440.985 301.159 441.018C301.017 441.051 300.87 441.051 300.73 441.02C299.463 440.76 299.047 441.227 299.48 442.42C299.92 443.647 299.203 444.707 297.33 445.6C292.023 448.113 286.907 450.97 281.98 454.17C281.781 454.3 281.541 454.354 281.304 454.321C281.067 454.288 280.849 454.17 280.69 453.99C279.483 452.63 278.39 450.913 277.41 448.84C277.25 448.5 277.313 448.317 277.6 448.29C277.643 448.287 277.687 448.296 277.727 448.315C277.767 448.334 277.802 448.364 277.83 448.4L280.5 451.97C280.652 452.172 280.874 452.309 281.123 452.353C281.371 452.398 281.628 452.347 281.84 452.21C286.02 449.517 290.367 447.123 294.88 445.03C295.099 444.927 295.273 444.749 295.37 444.53Z" fill="#30113A"/>
<path d="M197.54 418.5C199.68 423.533 202.32 428.283 205.46 432.75C201.77 431.84 197.67 422.15 197.54 418.5Z" fill="#864D7D"/>
<path d="M449.94 515H430.44C429.02 500.04 427.083 485.147 424.63 470.32C422.09 454.953 417.947 440.04 412.2 425.58C411.1 422.813 411.637 422.447 413.81 424.48C414.897 425.5 415.933 426.657 416.92 427.95C430.59 445.87 440.51 461.63 445.91 483.77C448.24 493.3 448.98 504.61 449.94 515Z" fill="#502B66"/>
</g>
<defs>
<clipPath id="clip0_2_2">
<rect width="512" height="512" fill="white"/>
</clipPath>
</defs>
</svg>
