<svg width="512" height="484" viewBox="0 0 512 484" fill="none" xmlns="http://www.w3.org/2000/svg">
<g clip-path="url(#clip0_2_137)">
<path d="M456.19 484C455.77 472.04 454.44 461.69 450.83 449.56C446.26 434.21 442.37 418.12 435.39 403.72C428.07 388.64 420.187 375.317 411.74 363.75C406.187 356.157 401.67 348.997 398.19 342.27C394.49 335.1 391.34 325.68 388.07 317.37C387.383 315.623 387.02 313.803 386.98 311.91C386.68 297.677 385.663 283.49 383.93 269.35C383.914 269.217 383.871 269.089 383.804 268.974C383.737 268.859 383.647 268.759 383.54 268.68L382.67 268.01C382.505 267.882 382.384 267.704 382.325 267.503C382.265 267.302 382.271 267.088 382.34 266.89C388.27 249.75 392.33 229.63 390.08 211.1C390.054 210.882 389.958 210.679 389.806 210.521C389.654 210.364 389.455 210.262 389.24 210.23C383.92 209.4 384.82 202.2 384.57 198.35C383.49 181.917 381.743 165.55 379.33 149.25C379.02 147.19 380.14 146.58 380.95 148.56C386.81 163.01 388.46 183.33 388.27 200.41C388.269 200.563 388.302 200.713 388.368 200.851C388.434 200.989 388.53 201.109 388.65 201.204C388.77 201.298 388.909 201.364 389.058 201.397C389.208 201.429 389.362 201.427 389.51 201.39L392.17 200.73" stroke="#764EA7" stroke-width="2"/>
<path d="M392.17 200.73C396.13 202.66 392.88 205.99 392.62 208.48C392.473 209.953 393.103 210.463 394.51 210.01C402.237 207.523 408.127 203.023 412.18 196.51" stroke="#5F6A8A" stroke-width="2"/>
<path d="M412.18 196.51C416.08 196.51 425.56 197.34 429.25 200.79" stroke="#764EA7" stroke-width="2"/>
<path d="M429.25 200.79C433.67 210.53 436.03 217.87 433.38 228.41C428.44 248.07 406.21 253.97 388.69 253.21C388.497 253.201 388.305 253.249 388.138 253.348C387.97 253.448 387.836 253.595 387.75 253.77C385.85 257.637 384.32 261.64 383.16 265.78C383.123 265.916 383.115 266.059 383.135 266.199C383.156 266.338 383.206 266.472 383.282 266.591C383.357 266.709 383.456 266.811 383.573 266.888C383.69 266.966 383.822 267.017 383.96 267.04C412.78 271.85 437.59 252.08 442.99 224.02C443.39 221.947 443.177 218.537 442.35 213.79" stroke="#5F6A8A" stroke-width="2"/>
<path d="M442.35 213.79C443.403 215.357 443.937 217.35 443.95 219.77C443.963 221.103 444.403 221.413 445.27 220.7C445.439 220.557 445.555 220.364 445.6 220.15C449.33 203.57 443.18 186.33 431.36 174.14C427.767 170.427 423.46 167.957 418.44 166.73C416.647 166.29 414.993 165.873 413.48 165.48C411.913 165.073 411.88 164.567 413.38 163.96C424.033 159.667 431.853 152.677 436.84 142.99C439.247 138.317 440.777 132.973 441.43 126.96C443.7 105.93 434.77 85.38 419.19 71.05C390.68 44.83 347.44 53.04 325.99 83.95C323.923 86.9234 321.883 89.9234 319.87 92.95C319.736 93.1483 319.535 93.2924 319.304 93.3565C319.074 93.4206 318.827 93.4006 318.61 93.3C300.597 84.8134 281.573 80.9967 261.54 81.85C259.47 81.94 257.4 82.77 255.41 83.36C255.196 83.4184 254.968 83.4079 254.76 83.33C253.2 82.71 251.57 81.94 249.87 81.87C230 81 212.25 86.25 193.77 93.76C193.541 93.8555 193.284 93.8612 193.05 93.7759C192.817 93.6907 192.624 93.5209 192.51 93.3C186.797 82.2267 178.97 73.27 169.03 66.43C139.07 45.8 101.65 55.23 81.73 84.45C66.36 107 65.16 136.66 86.44 155.75C88.3267 157.437 90.3934 158.86 92.64 160.02C94.3267 160.9 96.1734 161.767 98.18 162.62C99.5534 163.213 99.56 163.823 98.2 164.45C96.6467 165.17 95.23 165.723 93.95 166.11C71.23 173.04 63.97 197.97 66.18 219.69C66.2105 219.99 66.3202 220.276 66.4978 220.519C66.6754 220.761 66.9144 220.952 67.19 221.07C67.35 221.143 67.4734 220.927 67.56 220.42C68.1467 216.947 69.3667 213.693 71.22 210.66" stroke="#764EA7" stroke-width="2"/>
<path d="M71.22 210.66C70.9734 211.907 70.6367 213.11 70.21 214.27C67.61 221.37 70.11 231.57 73.48 238.01C81.15 252.69 96.16 265.99 113.21 267.22C114.1 267.28 131.61 267.55 128.22 264.72C128.083 264.609 127.979 264.46 127.92 264.29L124.37 254.34C124.297 254.139 124.163 253.966 123.987 253.846C123.811 253.726 123.602 253.664 123.39 253.67C107.46 254.3 89.9 248.38 81.28 234.33C75.44 224.8 78.37 209.94 82.99 200.29" stroke="#5F6A8A" stroke-width="2"/>
<path d="M82.99 200.29C88.3234 197.403 94.16 195.82 100.5 195.54" stroke="#764EA7" stroke-width="2"/>
<path d="M100.5 195.54C103.78 202.36 109.79 208.79 117.52 210.5C118.1 210.633 118.63 210.663 119.11 210.59C120.937 210.323 121.06 209.71 119.48 208.75C119.08 208.503 118.74 208.17 118.46 207.75" stroke="#5F6A8A" stroke-width="2"/>
<path d="M118.46 207.75C118.367 206.517 117.81 205.517 116.79 204.75" stroke="#9B7D98" stroke-width="2"/>
<path d="M116.79 204.75C116.797 202.803 117.52 201.147 118.96 199.78C119.061 199.683 119.181 199.607 119.314 199.559C119.446 199.511 119.588 199.491 119.73 199.5L120.66 199.58C120.796 199.591 120.933 199.575 121.062 199.532C121.191 199.489 121.311 199.421 121.412 199.331C121.514 199.241 121.597 199.132 121.655 199.01C121.713 198.888 121.745 198.755 121.75 198.62L121.91 194.27" stroke="#5F6A8A" stroke-width="2"/>
<path d="M121.91 194.27C123.55 178.87 126.177 163.467 129.79 148.06C130.22 146.23 132.18 145.46 131.66 148.12C128.44 164.67 126.8 182.17 126.57 199.03C126.5 203.84 126.91 207.93 121.83 210.28C121.664 210.358 121.522 210.48 121.42 210.633C121.318 210.787 121.259 210.965 121.25 211.15C120.803 222.95 121.717 234.397 123.99 245.49C125.61 253.42 126.14 258.54 129.75 266.22C129.81 266.347 129.843 266.486 129.845 266.627C129.847 266.768 129.818 266.908 129.762 267.038C129.705 267.167 129.621 267.284 129.515 267.379C129.41 267.474 129.285 267.546 129.15 267.59L128.52 267.8C128.355 267.855 128.208 267.953 128.092 268.082C127.976 268.212 127.896 268.37 127.86 268.54C124.81 282.43 124.96 296.3 124.47 311.8C124.397 314.027 123.987 316.137 123.24 318.13C118.18 331.72 112.2 346.03 103.42 357.67C90.59 374.71 77.71 394.77 70.21 416.44C66.27 427.82 62.88 442.99 59.46 456.2C56.93 466 56.19 474.44 56.44 484" stroke="#764EA7" stroke-width="2"/>
<path d="M442.35 213.79C438.963 208.483 434.597 204.15 429.25 200.79" stroke="#858DCA" stroke-width="2"/>
<path d="M412.18 196.51C410.507 194.817 408.62 194.093 406.52 194.34C402.89 194.77 399.21 194.84 395.47 194.98C393.69 195.047 392.37 195.863 391.51 197.43C391.023 198.323 391.243 199.423 392.17 200.73" stroke="#858DCA" stroke-width="2"/>
<path d="M449.94 484C448.98 473.61 448.24 462.3 445.91 452.77C440.51 430.63 430.59 414.87 416.92 396.95C415.933 395.657 414.897 394.5 413.81 393.48C411.637 391.447 411.1 391.813 412.2 394.58C417.947 409.04 422.09 423.953 424.63 439.32C427.083 454.147 429.02 469.04 430.44 484" stroke="#764EA7" stroke-width="2"/>
<path d="M389.66 483.98C391.527 480.74 392.75 477.41 393.33 473.99C393.363 473.807 393.344 473.618 393.275 473.444C393.206 473.271 393.09 473.121 392.94 473.01C386.087 467.917 381.347 461.543 378.72 453.89C374.7 442.16 377.68 428.43 375.01 416.08C373.66 409.86 366.94 402.83 362.6 398.3C362.432 398.125 362.212 398.016 361.98 397.99L350.5 396.81C350.291 396.79 350.093 396.703 349.935 396.563C349.777 396.423 349.667 396.237 349.62 396.03C347.78 387.56 347.48 380.8 346.92 370.38C346.06 354.42 346.467 338.483 348.14 322.57C348.233 321.71 348.357 319.093 348.51 314.72C348.513 314.683 348.508 314.647 348.495 314.618C348.482 314.589 348.463 314.569 348.44 314.56L348.17 314.47C348.122 314.451 348.069 314.452 348.021 314.472C347.972 314.492 347.933 314.531 347.91 314.58C344.217 322.88 340.49 331.17 336.73 339.45C334.31 344.76 331.95 346.68 327.68 350.43C323.607 354.017 320.257 359.19 317.63 365.95C317.39 366.577 317.343 366.613 317.49 366.06C319.757 357.56 321.51 348.957 322.75 340.25C323.697 333.623 326.047 323.82 329.8 310.84C329.845 310.687 329.853 310.526 329.823 310.37C329.793 310.213 329.725 310.067 329.626 309.942C329.527 309.817 329.399 309.718 329.253 309.654C329.108 309.589 328.949 309.56 328.79 309.57L325.54 309.75" stroke="#764EA7" stroke-width="2"/>
<path d="M325.54 309.75L325.57 301.42" stroke="#C1A0D9" stroke-width="2"/>
<path d="M325.57 301.42L335.12 292.92C337.947 290.407 337.653 289.97 334.24 291.61L330.4 293.45C330.25 293.522 330.085 293.555 329.919 293.546C329.753 293.538 329.592 293.488 329.45 293.402C329.308 293.315 329.19 293.195 329.106 293.052C329.022 292.908 328.975 292.746 328.97 292.58C328.943 291.787 328.657 290.993 328.11 290.2" stroke="#764EA7" stroke-width="2"/>
<path d="M328.11 290.2C328.763 286.567 328.927 282.883 328.6 279.15" stroke="#C1A0D9" stroke-width="2"/>
<path d="M328.6 279.15L336.2 268.17C336.242 268.112 336.265 268.044 336.265 267.978C336.265 267.912 336.242 267.852 336.2 267.81L336 267.63C335.981 267.61 335.959 267.595 335.934 267.584C335.909 267.573 335.882 267.568 335.855 267.568C335.828 267.568 335.801 267.573 335.776 267.584C335.751 267.595 335.729 267.61 335.71 267.63L328.11 275.01C328.001 275.119 327.869 275.201 327.723 275.249C327.577 275.298 327.422 275.312 327.27 275.29L325 274.96" stroke="#764EA7" stroke-width="2"/>
<path d="M325 274.96C327.8 269.92 329.48 264.547 330.04 258.84C330.24 256.86 329.76 256.68 328.6 258.3C327.253 260.18 325.923 262.073 324.61 263.98C320.52 269.94 312.4 272.96 305.6 274.19" stroke="#C1A0D9" stroke-width="2"/>
<path d="M305.6 274.19C308.18 268.89 312.16 263.37 314.24 259.05C327.97 230.45 314.41 191.78 296.88 167.54C294.673 164.493 292.277 161.613 289.69 158.9C282.51 151.36 282.253 151.587 288.92 159.58C292.46 163.82 295.56 168.303 298.22 173.03C309.58 193.26 318.84 219.01 315.74 242.75C314.253 254.097 309.897 263.793 302.67 271.84" stroke="#764EA7" stroke-width="2"/>
<path d="M302.67 271.84C293.337 271.513 285.43 269.243 278.95 265.03C273.317 261.363 269.18 258.89 266.54 257.61" stroke="#C1A0D9" stroke-width="2"/>
<path d="M266.54 257.61C264.133 254.997 261.713 252.437 259.28 249.93C244.54 234.78 234.48 214.4 229.29 193.99C228.997 192.83 228.68 191.173 228.34 189.02C227.233 182.02 226.703 182.06 226.75 189.14C226.763 192.433 227 195.72 227.46 199" stroke="#764EA7" stroke-width="2"/>
<path d="M227.46 199C227.08 197.62 226.31 198.28 226.2 199.15C225.72 202.843 225.347 206.533 225.08 210.22" stroke="#C1A0D9" stroke-width="2"/>
<path d="M225.08 210.22C224.28 212.273 223.883 214.44 223.89 216.72C223.897 216.82 223.853 216.837 223.76 216.77C223.693 216.723 223.607 216.7 223.5 216.7C223.457 216.701 223.414 216.694 223.375 216.678C223.335 216.662 223.298 216.638 223.267 216.607C223.237 216.576 223.212 216.539 223.195 216.499C223.179 216.458 223.17 216.414 223.17 216.37C223.17 215.67 222.63 203.82 221.58 204.82C221.483 204.917 221.426 205.042 221.42 205.17C220.84 217.94 223.07 239.85 231.2 250.28C234.1 254 236.013 256.933 236.94 259.08C238.64 263.02 230.71 254.87 229.33 253.35C229.217 253.23 229.08 253.14 228.92 253.08C227.98 252.753 227.717 252.22 228.13 251.48C228.215 251.328 228.258 251.156 228.254 250.982C228.251 250.808 228.201 250.638 228.11 250.49C222.597 241.237 219.313 231.24 218.26 220.5C218.213 219.98 218.063 219.85 217.81 220.11C217.772 220.148 217.742 220.193 217.721 220.243C217.701 220.293 217.69 220.346 217.69 220.4C217.77 230.15 219.95 238.15 224.46 246.69C225.473 248.603 226.24 250.623 226.76 252.75" stroke="#764EA7" stroke-width="2"/>
<path d="M226.76 252.75C223.45 250.19 222.67 253.1 223.13 255.6C224.05 260.533 226.01 264.99 229.01 268.97C229.79 270.003 229.533 270.537 228.24 270.57C223.093 270.703 217.97 270.417 212.87 269.71C212.805 269.701 212.739 269.711 212.681 269.74C212.622 269.768 212.573 269.814 212.54 269.87C212.48 269.977 212.453 270.103 212.46 270.25" stroke="#C1A0D9" stroke-width="2"/>
<path d="M212.46 270.25C211.133 270.777 210.98 271.623 212 272.79" stroke="#764EA7" stroke-width="2"/>
<path d="M212 272.79C199.58 275.1 187.99 268.92 182.3 258.02C181.06 255.65 180.36 257.07 180.58 258.56C181.06 261.74 181.383 265.003 181.55 268.35" stroke="#C1A0D9" stroke-width="2"/>
<path d="M181.55 268.35C180.23 269.62 182.08 271.96 180.34 272.26C180.206 272.282 180.067 272.269 179.938 272.224C179.809 272.179 179.693 272.102 179.6 272C179.32 271.673 179.023 271.367 178.71 271.08C175.45 268.087 175.047 268.43 177.5 272.11L182.2 279.16" stroke="#764EA7" stroke-width="2"/>
<path d="M182.2 279.16C181.5 281 181.503 282.863 182.21 284.75" stroke="#C1A0D9" stroke-width="2"/>
<path d="M182.21 284.75C181.637 287.037 181.523 289.36 181.87 291.72C182.043 292.88 181.633 293.143 180.64 292.51C178.467 291.103 176.083 290.353 173.49 290.26C171.783 290.2 171.707 290.527 173.26 291.24C173.513 291.36 173.767 291.47 174.02 291.57C177.61 293 182.27 297.79 185.54 300.25" stroke="#764EA7" stroke-width="2"/>
<path d="M185.54 300.25L187.5 309.94" stroke="#C1A0D9" stroke-width="2"/>
<path d="M187.5 309.94C186.16 309.547 184.833 309.257 183.52 309.07C179.15 308.46 181.48 311.1 181.81 312.77C184.037 323.99 185.623 331.463 186.57 335.19C187.25 337.89 187.653 339.82 187.78 340.98C187.805 341.236 187.927 341.472 188.12 341.64L188.38 341.85C188.492 341.947 188.582 342.067 188.642 342.202C188.703 342.337 188.733 342.483 188.73 342.63C188.71 343.99 188.937 345.3 189.41 346.56C189.98 348.09 189.54 349.3 189.76 350.5C190.873 356.387 192.907 361.917 195.86 367.09C196.107 367.517 196.05 367.737 195.69 367.75C195.627 367.753 195.565 367.738 195.51 367.706C195.455 367.674 195.41 367.627 195.38 367.57C192.4 361.543 188.943 355.81 185.01 350.37C183.33 348.06 179.85 347.18 178.7 345.3C175.147 339.487 170.12 329.617 163.62 315.69C163.067 314.503 162.663 314.553 162.41 315.84C162.363 316.107 162.36 316.413 162.4 316.76C165.22 340.073 165.88 363.9 164.38 388.24C164.22 390.827 163.93 393.29 163.51 395.63C163.472 395.84 163.369 396.032 163.217 396.179C163.064 396.327 162.869 396.421 162.66 396.45C159.567 396.863 156.46 397.31 153.34 397.79C146.61 398.81 143.23 406.53 139.03 410.86C135.73 414.26 135.47 419.99 135.26 424.75C134.92 432.397 134.587 440.04 134.26 447.68C133.87 456.81 126.88 466.63 120.51 472.74C118.997 474.193 118.59 475.847 119.29 477.7C120.11 479.88 121.397 481.633 123.15 482.96C123.717 483.387 123.657 483.687 122.97 483.86L122.44 484" stroke="#764EA7" stroke-width="2"/>
<path d="M80.94 484C82.3067 460.747 85.81 437.827 91.45 415.24C92.35 411.627 95.0533 403.677 99.56 391.39C99.572 391.352 99.5708 391.308 99.5567 391.266C99.5425 391.223 99.5159 391.183 99.48 391.15L99.28 390.95C99.2427 390.914 99.1936 390.893 99.1419 390.891C99.0903 390.89 99.0397 390.907 99 390.94C97.8867 391.86 96.9033 392.897 96.05 394.05C78.94 417.2 65.56 441.04 62.84 470.32C62.4133 474.873 62.03 479.433 61.69 484" stroke="#764EA7" stroke-width="2"/>
<path d="M121.91 194.27C114.703 193.423 107.567 193.847 100.5 195.54" stroke="#858DCA" stroke-width="2"/>
<path d="M82.99 200.29C78.0767 202.697 74.1534 206.153 71.22 210.66" stroke="#858DCA" stroke-width="2"/>
<path d="M377.279 127.201C377.099 126.387 376.728 125.623 376.187 124.954C375.647 124.284 374.947 123.723 374.129 123.3C373.31 122.877 372.389 122.603 371.417 122.491C370.446 122.38 369.443 122.434 368.466 122.65C367.489 122.867 366.557 123.242 365.723 123.754C364.89 124.265 364.171 124.904 363.608 125.632C363.045 126.361 362.648 127.166 362.441 128.001C362.234 128.836 362.22 129.685 362.401 130.499C362.581 131.313 362.952 132.077 363.493 132.746C364.033 133.415 364.733 133.977 365.551 134.4C366.37 134.822 367.291 135.097 368.263 135.209C369.235 135.32 370.237 135.266 371.214 135.049C372.191 134.833 373.123 134.458 373.957 133.946C374.79 133.435 375.509 132.796 376.072 132.067C376.636 131.339 377.032 130.534 377.239 129.699C377.446 128.864 377.46 128.015 377.279 127.201Z" stroke="#764EA7" stroke-width="2"/>
<path d="M149.175 127.153C148.943 126.351 148.539 125.607 147.986 124.963C147.433 124.319 146.742 123.789 145.952 123.403C145.162 123.016 144.289 122.78 143.382 122.71C142.475 122.639 141.552 122.734 140.666 122.989C139.781 123.245 138.949 123.656 138.219 124.199C137.49 124.743 136.876 125.407 136.414 126.156C135.951 126.904 135.649 127.721 135.524 128.56C135.399 129.399 135.454 130.244 135.685 131.047C135.917 131.849 136.321 132.593 136.874 133.237C137.427 133.88 138.118 134.411 138.908 134.797C139.698 135.184 140.571 135.42 141.478 135.49C142.385 135.561 143.308 135.466 144.194 135.211C145.079 134.955 145.911 134.544 146.641 134C147.37 133.457 147.984 132.792 148.446 132.044C148.909 131.296 149.211 130.479 149.336 129.64C149.461 128.801 149.406 127.956 149.175 127.153Z" stroke="#764EA7" stroke-width="2"/>
<path d="M201.41 259.32C202.2 260.49 211.95 271.35 212.9 268.9C212.935 268.805 212.942 268.702 212.919 268.602C212.896 268.503 212.844 268.412 212.77 268.34C194.03 250.5 192.16 226.87 197.48 203.24C199.073 196.187 201.093 189.117 203.54 182.03C207.347 170.99 206.85 170.793 202.05 181.44C199.203 187.753 196.83 194.27 194.93 200.99C189.39 220.6 189.63 241.95 201.41 259.32Z" stroke="#764EA7" stroke-width="2"/>
<path d="M373.659 126.071C373.315 125.549 372.866 125.104 372.337 124.761C371.808 124.418 371.21 124.184 370.577 124.072C369.943 123.96 369.287 123.973 368.646 124.109C368.005 124.245 367.391 124.502 366.84 124.866C366.288 125.23 365.81 125.693 365.432 126.228C365.054 126.764 364.784 127.362 364.638 127.988C364.491 128.614 364.471 129.256 364.578 129.877C364.684 130.499 364.917 131.087 365.261 131.609C365.605 132.131 366.054 132.576 366.583 132.919C367.112 133.262 367.71 133.496 368.343 133.608C368.977 133.72 369.633 133.707 370.274 133.571C370.915 133.435 371.529 133.178 372.08 132.814C372.632 132.45 373.11 131.987 373.488 131.452C373.866 130.916 374.136 130.318 374.282 129.692C374.429 129.066 374.449 128.424 374.342 127.803C374.236 127.181 374.003 126.593 373.659 126.071Z" stroke="#9B7D98" stroke-width="2"/>
<path d="M146.458 126.074C146.109 125.58 145.659 125.166 145.133 124.854C144.606 124.543 144.013 124.34 143.388 124.258C142.763 124.176 142.119 124.216 141.491 124.376C140.863 124.537 140.264 124.813 139.728 125.191C139.193 125.569 138.731 126.04 138.37 126.578C138.008 127.116 137.754 127.71 137.622 128.326C137.489 128.942 137.481 129.568 137.598 130.169C137.715 130.77 137.954 131.333 138.302 131.826C138.651 132.32 139.101 132.734 139.628 133.046C140.154 133.357 140.747 133.56 141.372 133.642C141.997 133.724 142.641 133.684 143.269 133.524C143.897 133.363 144.496 133.087 145.032 132.709C145.567 132.331 146.029 131.86 146.39 131.322C146.752 130.784 147.006 130.19 147.138 129.574C147.271 128.958 147.279 128.332 147.162 127.731C147.045 127.13 146.806 126.567 146.458 126.074Z" stroke="#9B7D98" stroke-width="2"/>
<path d="M305.6 274.19C302.78 274.843 301.803 274.06 302.67 271.84" stroke="#9B7D98" stroke-width="2"/>
<path d="M266.54 257.61C255.847 252.477 247.5 245.093 241.5 235.46C235.13 225.25 229.8 211.54 227.46 199" stroke="#9B7D98" stroke-width="2"/>
<path d="M116.79 204.75C116.057 206.377 116.613 207.377 118.46 207.75" stroke="#A9BCBC" stroke-width="2"/>
<path d="M325 274.96C322.1 278.82 318.867 282.35 315.3 285.55C313.533 287.143 313.787 287.6 316.06 286.92C320.813 285.5 324.993 282.91 328.6 279.15" stroke="#9B7D98" stroke-width="2"/>
<path d="M328.11 290.2C326.34 298.48 313.89 302.93 306.51 304.58C304.597 305.007 304.577 305.307 306.45 305.48C311.99 306 320.31 303.54 325.57 301.42" stroke="#9B7D98" stroke-width="2"/>
<path d="M325.54 309.75C318.13 327.33 304.58 334.38 289.24 343.7C286.54 345.34 285.09 347.05 284.52 350C282.87 358.59 281.35 368.05 288.26 375.26" stroke="#9B7D98" stroke-width="2"/>
<path d="M288.26 375.26C278.74 382.713 268.757 389.593 258.31 395.9" stroke="#A9BCBC" stroke-width="2"/>
<path d="M258.31 395.9L255.85 396.57C255.675 396.619 255.516 396.714 255.391 396.846C255.266 396.978 255.179 397.142 255.14 397.32C255.107 397.493 255.063 397.663 255.01 397.83C254.577 399.25 254.167 399.243 253.78 397.81C253.58 397.07 253.057 396.5 252.21 396.1" stroke="#9B7D98" stroke-width="2"/>
<path d="M252.21 396.1C239.05 387.76 232.64 384.08 224.38 373.96" stroke="#A9BCBC" stroke-width="2"/>
<path d="M224.38 373.96C228.173 371.16 230.257 367.577 230.63 363.21C231.11 357.62 230.05 346.73 224.43 343.56C209.92 335.39 193.99 327.18 187.5 309.94" stroke="#9B7D98" stroke-width="2"/>
<path d="M185.54 300.25C190.693 303.17 196.22 304.79 202.12 305.11C204.37 305.23 202.31 304.06 201.82 303.94C196.78 302.74 186.26 298.25 183.96 293.28C182.933 291.053 182.35 288.21 182.21 284.75" stroke="#9B7D98" stroke-width="2"/>
<path d="M182.2 279.16C186.82 284.15 192.68 285.99 198.84 287.7C198.898 287.716 198.959 287.715 199.017 287.7C199.075 287.684 199.128 287.653 199.17 287.61C199.39 287.377 199.327 287.167 198.98 286.98C190.88 282.627 185.07 276.417 181.55 268.35" stroke="#9B7D98" stroke-width="2"/>
<path d="M212 272.79C214.02 272.543 214.173 271.697 212.46 270.25" stroke="#9B7D98" stroke-width="2"/>
<path d="M226.76 252.75C230.42 258.02 236 260.84 239.89 263.86C240.69 264.48 247.82 270.05 248.14 269.69C248.158 269.668 248.172 269.644 248.18 269.617C248.188 269.59 248.191 269.562 248.188 269.534C248.186 269.506 248.177 269.479 248.164 269.454C248.15 269.429 248.132 269.407 248.11 269.39C231.93 256.34 226.27 229.84 225.08 210.22" stroke="#9B7D98" stroke-width="2"/>
<path d="M224.38 373.96C221.307 372.48 219.313 370.417 218.4 367.77C217.66 365.637 216.64 365.497 215.34 367.35C208.927 376.457 200.707 383.487 190.68 388.44C190.501 388.528 190.352 388.668 190.254 388.843C190.156 389.018 190.113 389.219 190.13 389.42C191.26 403.74 215.23 430.43 229.31 433.47C229.445 433.501 229.585 433.503 229.721 433.476C229.858 433.448 229.987 433.392 230.1 433.31C231.52 432.31 232.91 430.633 234.27 428.28C240.363 417.693 246.343 406.967 252.21 396.1" stroke="#5F6A8A" stroke-width="2"/>
<path d="M258.31 395.9C258.597 398.04 259.387 399.863 260.68 401.37C261.96 402.85 262.787 403.96 263.16 404.7C268.1 414.4 273.507 423.87 279.38 433.11C279.497 433.298 279.673 433.441 279.88 433.517C280.086 433.594 280.312 433.598 280.52 433.53C300.08 427.26 314.68 408.71 321.4 390.15C321.477 389.939 321.481 389.709 321.41 389.495C321.339 389.281 321.198 389.096 321.01 388.97C316.743 386.163 312.543 383.373 308.41 380.6C302.96 376.94 299.9 371.36 295.68 366.38C294.873 365.427 294.297 365.55 293.95 366.75C293.09 369.743 291.193 372.58 288.26 375.26" stroke="#5F6A8A" stroke-width="2"/>
<path d="M294.88 417.03C290.367 419.123 286.02 421.517 281.84 424.21C281.628 424.347 281.371 424.398 281.123 424.353C280.874 424.309 280.652 424.172 280.5 423.97L277.83 420.4C277.802 420.364 277.767 420.334 277.727 420.315C277.687 420.296 277.643 420.287 277.6 420.29C277.313 420.317 277.25 420.5 277.41 420.84C278.39 422.913 279.483 424.63 280.69 425.99C280.849 426.17 281.067 426.288 281.304 426.321C281.541 426.354 281.781 426.3 281.98 426.17C286.907 422.97 292.023 420.113 297.33 417.6C299.203 416.707 299.92 415.647 299.48 414.42C299.047 413.227 299.463 412.76 300.73 413.02C300.87 413.051 301.017 413.051 301.159 413.018C301.3 412.985 301.434 412.921 301.55 412.83C307.95 407.9 313.33 397.01 316.36 389.66C316.947 388.233 316.74 387.373 315.74 387.08C315.495 387.007 315.231 387.032 315.003 387.149C314.776 387.267 314.602 387.468 314.52 387.71C313 392.117 310.977 396.29 308.45 400.23C308.243 400.55 307.873 401.657 307.34 403.55C307.277 403.768 307.143 403.959 306.96 404.092C306.777 404.224 306.555 404.291 306.33 404.28C306.083 404.267 305.863 404.193 305.67 404.06C305.54 403.97 305.391 403.911 305.234 403.888C305.078 403.866 304.919 403.88 304.77 403.93C303.103 404.497 302.97 405.277 304.37 406.27C304.497 406.358 304.601 406.474 304.676 406.609C304.75 406.744 304.792 406.894 304.799 407.048C304.806 407.202 304.777 407.355 304.715 407.496C304.652 407.637 304.558 407.761 304.44 407.86C301.33 410.43 297.04 412.81 295.37 416.53C295.273 416.749 295.099 416.927 294.88 417.03Z" stroke="#5F6A8A" stroke-width="2"/>
<path d="M208.94 412.56C215.233 418.367 221.703 423.047 228.35 426.6C228.584 426.724 228.857 426.751 229.11 426.674C229.363 426.597 229.575 426.423 229.7 426.19C230.673 424.377 231.697 422.59 232.77 420.83C233.97 418.87 232.21 420.12 231.99 420.4C230.997 421.647 230.07 422.87 229.21 424.07C229.063 424.274 228.844 424.415 228.598 424.465C228.351 424.515 228.095 424.471 227.88 424.34C223.627 421.78 219.64 418.847 215.92 415.54C215.787 415.42 215.69 415.277 215.63 415.11C215.123 413.617 214.173 412.963 212.78 413.15C212.616 413.171 212.451 413.153 212.297 413.098C212.144 413.042 212.008 412.95 211.9 412.83C206.493 406.77 202.103 400.24 198.73 393.24C197.983 391.707 197.457 389.937 197.15 387.93C196.97 386.723 196.42 386.523 195.5 387.33C195.207 387.59 194.987 387.93 194.84 388.35C194.627 388.957 194.67 389.753 194.97 390.74C197.497 399.033 202.153 406.307 208.94 412.56Z" stroke="#5F6A8A" stroke-width="2"/>
<path d="M442.35 213.79C438.963 208.483 434.597 204.15 429.25 200.79C425.56 197.34 416.08 196.51 412.18 196.51C410.507 194.817 408.62 194.093 406.52 194.34C402.89 194.77 399.21 194.84 395.47 194.98C393.69 195.047 392.37 195.863 391.51 197.43C391.023 198.323 391.243 199.423 392.17 200.73L389.51 201.39C389.362 201.427 389.207 201.429 389.058 201.397C388.909 201.364 388.77 201.298 388.65 201.204C388.53 201.109 388.434 200.989 388.368 200.851C388.302 200.713 388.269 200.563 388.27 200.41C388.46 183.33 386.81 163.01 380.95 148.56C380.14 146.58 379.02 147.19 379.33 149.25C381.743 165.55 383.49 181.917 384.57 198.35C384.82 202.2 383.92 209.4 389.24 210.23C389.455 210.262 389.654 210.364 389.806 210.521C389.958 210.679 390.054 210.882 390.08 211.1C392.33 229.63 388.27 249.75 382.34 266.89C382.271 267.088 382.265 267.302 382.325 267.503C382.384 267.704 382.505 267.881 382.67 268.01L383.54 268.68C383.647 268.759 383.737 268.859 383.804 268.974C383.871 269.089 383.914 269.217 383.93 269.35C385.663 283.49 386.68 297.677 386.98 311.91C387.02 313.803 387.383 315.623 388.07 317.37C391.34 325.68 394.49 335.1 398.19 342.27C401.67 348.997 406.187 356.157 411.74 363.75C420.187 375.317 428.07 388.64 435.39 403.72C442.37 418.12 446.26 434.21 450.83 449.56C454.44 461.69 455.77 472.04 456.19 484H449.94C448.98 473.61 448.24 462.3 445.91 452.77C440.51 430.63 430.59 414.87 416.92 396.95C415.933 395.657 414.897 394.5 413.81 393.48C411.637 391.447 411.1 391.813 412.2 394.58C417.947 409.04 422.09 423.953 424.63 439.32C427.083 454.147 429.02 469.04 430.44 484L389.66 483.98C391.527 480.74 392.75 477.41 393.33 473.99C393.363 473.807 393.344 473.618 393.275 473.444C393.206 473.271 393.09 473.121 392.94 473.01C386.087 467.917 381.347 461.543 378.72 453.89C374.7 442.16 377.68 428.43 375.01 416.08C373.66 409.86 366.94 402.83 362.6 398.3C362.432 398.125 362.212 398.016 361.98 397.99L350.5 396.81C350.291 396.79 350.093 396.703 349.935 396.563C349.778 396.423 349.667 396.237 349.62 396.03C347.78 387.56 347.48 380.8 346.92 370.38C346.06 354.42 346.467 338.483 348.14 322.57C348.233 321.71 348.357 319.093 348.51 314.72C348.513 314.683 348.508 314.647 348.495 314.618C348.482 314.589 348.463 314.569 348.44 314.56L348.17 314.47C348.122 314.451 348.069 314.452 348.021 314.472C347.972 314.492 347.933 314.531 347.91 314.58C344.217 322.88 340.49 331.17 336.73 339.45C334.31 344.76 331.95 346.68 327.68 350.43C323.607 354.017 320.257 359.19 317.63 365.95C317.39 366.577 317.343 366.613 317.49 366.06C319.757 357.56 321.51 348.957 322.75 340.25C323.697 333.623 326.047 323.82 329.8 310.84C329.845 310.687 329.853 310.526 329.823 310.37C329.793 310.213 329.725 310.067 329.626 309.942C329.527 309.817 329.399 309.718 329.253 309.654C329.108 309.589 328.949 309.56 328.79 309.57L325.54 309.75L325.57 301.42L335.12 292.92C337.947 290.407 337.653 289.97 334.24 291.61L330.4 293.45C330.25 293.522 330.085 293.555 329.919 293.546C329.753 293.538 329.592 293.488 329.45 293.402C329.308 293.315 329.19 293.195 329.106 293.052C329.022 292.908 328.975 292.746 328.97 292.58C328.943 291.787 328.657 290.993 328.11 290.2C328.763 286.567 328.927 282.883 328.6 279.15L336.2 268.17C336.242 268.112 336.265 268.044 336.265 267.978C336.265 267.912 336.242 267.852 336.2 267.81L336 267.63C335.981 267.61 335.959 267.595 335.934 267.584C335.909 267.573 335.882 267.568 335.855 267.568C335.828 267.568 335.801 267.573 335.776 267.584C335.751 267.595 335.729 267.61 335.71 267.63L328.11 275.01C328.001 275.119 327.869 275.201 327.723 275.249C327.577 275.298 327.422 275.312 327.27 275.29L325 274.96C327.8 269.92 329.48 264.547 330.04 258.84C330.24 256.86 329.76 256.68 328.6 258.3C327.253 260.18 325.923 262.073 324.61 263.98C320.52 269.94 312.4 272.96 305.6 274.19C308.18 268.89 312.16 263.37 314.24 259.05C327.97 230.45 314.41 191.78 296.88 167.54C294.673 164.493 292.277 161.613 289.69 158.9C282.51 151.36 282.253 151.587 288.92 159.58C292.46 163.82 295.56 168.303 298.22 173.03C309.58 193.26 318.84 219.01 315.74 242.75C314.253 254.097 309.897 263.793 302.67 271.84C293.337 271.513 285.43 269.243 278.95 265.03C273.317 261.363 269.18 258.89 266.54 257.61C264.133 254.997 261.713 252.437 259.28 249.93C244.54 234.78 234.48 214.4 229.29 193.99C228.997 192.83 228.68 191.173 228.34 189.02C227.233 182.02 226.703 182.06 226.75 189.14C226.763 192.433 227 195.72 227.46 199C227.08 197.62 226.31 198.28 226.2 199.15C225.72 202.843 225.347 206.533 225.08 210.22C224.28 212.273 223.883 214.44 223.89 216.72C223.897 216.82 223.853 216.837 223.76 216.77C223.693 216.723 223.607 216.7 223.5 216.7C223.457 216.701 223.415 216.694 223.375 216.678C223.335 216.662 223.298 216.638 223.267 216.607C223.237 216.576 223.212 216.539 223.195 216.499C223.179 216.458 223.17 216.414 223.17 216.37C223.17 215.67 222.63 203.82 221.58 204.82C221.483 204.917 221.426 205.042 221.42 205.17C220.84 217.94 223.07 239.85 231.2 250.28C234.1 254 236.013 256.933 236.94 259.08C238.64 263.02 230.71 254.87 229.33 253.35C229.217 253.23 229.08 253.14 228.92 253.08C227.98 252.753 227.717 252.22 228.13 251.48C228.215 251.328 228.258 251.156 228.254 250.982C228.251 250.808 228.201 250.638 228.11 250.49C222.597 241.237 219.313 231.24 218.26 220.5C218.213 219.98 218.063 219.85 217.81 220.11C217.772 220.148 217.742 220.193 217.721 220.243C217.701 220.293 217.69 220.346 217.69 220.4C217.77 230.15 219.95 238.15 224.46 246.69C225.473 248.603 226.24 250.623 226.76 252.75C223.45 250.19 222.67 253.1 223.13 255.6C224.05 260.533 226.01 264.99 229.01 268.97C229.79 270.003 229.533 270.537 228.24 270.57C223.093 270.703 217.97 270.417 212.87 269.71C212.805 269.701 212.739 269.711 212.681 269.74C212.622 269.768 212.573 269.814 212.54 269.87C212.48 269.977 212.453 270.103 212.46 270.25C211.133 270.777 210.98 271.623 212 272.79C199.58 275.1 187.99 268.92 182.3 258.02C181.06 255.65 180.36 257.07 180.58 258.56C181.06 261.74 181.383 265.003 181.55 268.35C180.23 269.62 182.08 271.96 180.34 272.26C180.206 272.282 180.067 272.269 179.938 272.224C179.809 272.179 179.693 272.102 179.6 272C179.32 271.673 179.023 271.367 178.71 271.08C175.45 268.087 175.047 268.43 177.5 272.11L182.2 279.16C181.5 281 181.503 282.863 182.21 284.75C181.637 287.037 181.523 289.36 181.87 291.72C182.043 292.88 181.633 293.143 180.64 292.51C178.467 291.103 176.083 290.353 173.49 290.26C171.783 290.2 171.707 290.527 173.26 291.24C173.513 291.36 173.767 291.47 174.02 291.57C177.61 293 182.27 297.79 185.54 300.25L187.5 309.94C186.16 309.547 184.833 309.257 183.52 309.07C179.15 308.46 181.48 311.1 181.81 312.77C184.037 323.99 185.623 331.463 186.57 335.19C187.25 337.89 187.653 339.82 187.78 340.98C187.805 341.236 187.927 341.472 188.12 341.64L188.38 341.85C188.492 341.947 188.582 342.067 188.642 342.202C188.703 342.337 188.733 342.483 188.73 342.63C188.71 343.99 188.937 345.3 189.41 346.56C189.98 348.09 189.54 349.3 189.76 350.5C190.873 356.387 192.907 361.917 195.86 367.09C196.107 367.517 196.05 367.737 195.69 367.75C195.627 367.753 195.565 367.738 195.51 367.706C195.455 367.674 195.41 367.627 195.38 367.57C192.4 361.543 188.943 355.81 185.01 350.37C183.33 348.06 179.85 347.18 178.7 345.3C175.147 339.487 170.12 329.617 163.62 315.69C163.067 314.503 162.663 314.553 162.41 315.84C162.363 316.107 162.36 316.413 162.4 316.76C165.22 340.073 165.88 363.9 164.38 388.24C164.22 390.827 163.93 393.29 163.51 395.63C163.472 395.84 163.369 396.032 163.217 396.179C163.064 396.327 162.869 396.421 162.66 396.45C159.567 396.863 156.46 397.31 153.34 397.79C146.61 398.81 143.23 406.53 139.03 410.86C135.73 414.26 135.47 419.99 135.26 424.75C134.92 432.397 134.587 440.04 134.26 447.68C133.87 456.81 126.88 466.63 120.51 472.74C118.997 474.193 118.59 475.847 119.29 477.7C120.11 479.88 121.397 481.633 123.15 482.96C123.717 483.387 123.657 483.687 122.97 483.86L122.44 484H80.94C82.3067 460.747 85.81 437.827 91.45 415.24C92.35 411.627 95.0533 403.677 99.56 391.39C99.572 391.352 99.5709 391.308 99.5567 391.266C99.5425 391.223 99.5159 391.183 99.48 391.15L99.28 390.95C99.2428 390.914 99.1936 390.893 99.1419 390.892C99.0903 390.89 99.0397 390.907 99 390.94C97.8867 391.86 96.9034 392.897 96.05 394.05C78.94 417.2 65.56 441.04 62.84 470.32C62.4134 474.873 62.03 479.433 61.69 484H56.44C56.19 474.44 56.93 466 59.46 456.2C62.88 442.99 66.27 427.82 70.21 416.44C77.71 394.77 90.59 374.71 103.42 357.67C112.2 346.03 118.18 331.72 123.24 318.13C123.987 316.137 124.397 314.027 124.47 311.8C124.96 296.3 124.81 282.43 127.86 268.54C127.896 268.37 127.976 268.212 128.092 268.082C128.208 267.953 128.355 267.855 128.52 267.8L129.15 267.59C129.285 267.546 129.41 267.474 129.515 267.379C129.621 267.284 129.705 267.167 129.762 267.038C129.818 266.908 129.847 266.768 129.845 266.627C129.843 266.486 129.81 266.347 129.75 266.22C126.14 258.54 125.61 253.42 123.99 245.49C121.717 234.397 120.803 222.95 121.25 211.15C121.259 210.965 121.318 210.787 121.42 210.633C121.522 210.48 121.664 210.358 121.83 210.28C126.91 207.93 126.5 203.84 126.57 199.03C126.8 182.17 128.44 164.67 131.66 148.12C132.18 145.46 130.22 146.23 129.79 148.06C126.177 163.467 123.55 178.87 121.91 194.27C114.703 193.423 107.567 193.847 100.5 195.54C94.16 195.82 88.3233 197.403 82.99 200.29C78.0767 202.697 74.1534 206.153 71.22 210.66C69.3667 213.693 68.1467 216.947 67.56 220.42C67.4733 220.927 67.35 221.143 67.19 221.07C66.9144 220.952 66.6754 220.761 66.4978 220.519C66.3202 220.276 66.2105 219.99 66.18 219.69C63.97 197.97 71.23 173.04 93.95 166.11C95.23 165.723 96.6467 165.17 98.2 164.45C99.56 163.823 99.5533 163.213 98.18 162.62C96.1733 161.767 94.3267 160.9 92.64 160.02C90.3933 158.86 88.3267 157.437 86.44 155.75C65.16 136.66 66.36 107 81.73 84.45C101.65 55.23 139.07 45.8 169.03 66.43C178.97 73.27 186.797 82.2267 192.51 93.3C192.624 93.5209 192.817 93.6907 193.05 93.7759C193.284 93.8612 193.541 93.8555 193.77 93.76C212.25 86.25 230 81 249.87 81.87C251.57 81.94 253.2 82.71 254.76 83.33C254.968 83.4079 255.196 83.4184 255.41 83.36C257.4 82.77 259.47 81.94 261.54 81.85C281.573 80.9967 300.597 84.8134 318.61 93.3C318.827 93.4006 319.074 93.4206 319.304 93.3565C319.535 93.2924 319.736 93.1483 319.87 92.95C321.883 89.9234 323.923 86.9234 325.99 83.95C347.44 53.04 390.68 44.83 419.19 71.05C434.77 85.38 443.7 105.93 441.43 126.96C440.777 132.973 439.247 138.317 436.84 142.99C431.853 152.677 424.033 159.667 413.38 163.96C411.88 164.567 411.913 165.073 413.48 165.48C414.993 165.873 416.647 166.29 418.44 166.73C423.46 167.957 427.767 170.427 431.36 174.14C443.18 186.33 449.33 203.57 445.6 220.15C445.555 220.364 445.439 220.557 445.27 220.7C444.403 221.413 443.963 221.103 443.95 219.77C443.937 217.35 443.403 215.357 442.35 213.79ZM377.279 127.201C377.099 126.387 376.728 125.623 376.187 124.954C375.647 124.285 374.947 123.723 374.129 123.3C373.31 122.878 372.389 122.603 371.417 122.491C370.446 122.38 369.443 122.434 368.466 122.651C367.489 122.867 366.557 123.242 365.723 123.754C364.89 124.265 364.171 124.904 363.608 125.633C363.045 126.361 362.648 127.166 362.441 128.001C362.234 128.836 362.22 129.685 362.401 130.499C362.581 131.313 362.952 132.077 363.493 132.746C364.034 133.416 364.733 133.977 365.551 134.4C366.37 134.822 367.291 135.097 368.263 135.209C369.235 135.32 370.237 135.266 371.214 135.05C372.191 134.833 373.123 134.458 373.957 133.946C374.79 133.435 375.509 132.796 376.072 132.068C376.636 131.339 377.032 130.534 377.239 129.699C377.446 128.864 377.46 128.015 377.279 127.201ZM149.175 127.153C148.943 126.351 148.539 125.607 147.986 124.963C147.433 124.32 146.742 123.789 145.952 123.403C145.162 123.016 144.289 122.781 143.382 122.71C142.475 122.639 141.552 122.734 140.666 122.989C139.781 123.245 138.949 123.656 138.219 124.2C137.49 124.743 136.876 125.408 136.414 126.156C135.951 126.904 135.649 127.721 135.524 128.56C135.399 129.399 135.454 130.244 135.685 131.047C135.917 131.849 136.321 132.593 136.874 133.237C137.427 133.881 138.118 134.411 138.908 134.797C139.698 135.184 140.571 135.42 141.478 135.49C142.385 135.561 143.308 135.466 144.194 135.211C145.079 134.955 145.911 134.544 146.641 134.001C147.37 133.457 147.984 132.793 148.446 132.044C148.909 131.296 149.211 130.479 149.336 129.64C149.461 128.801 149.406 127.956 149.175 127.153ZM201.41 259.32C202.2 260.49 211.95 271.35 212.9 268.9C212.935 268.805 212.942 268.702 212.919 268.602C212.896 268.503 212.844 268.412 212.77 268.34C194.03 250.5 192.16 226.87 197.48 203.24C199.073 196.187 201.093 189.117 203.54 182.03C207.347 170.99 206.85 170.793 202.05 181.44C199.203 187.753 196.83 194.27 194.93 200.99C189.39 220.6 189.63 241.95 201.41 259.32Z" fill="#9C71E7"/>
<path d="M377.279 127.201C377.46 128.015 377.446 128.864 377.239 129.699C377.032 130.534 376.636 131.339 376.072 132.067C375.509 132.796 374.79 133.435 373.957 133.946C373.123 134.458 372.191 134.833 371.214 135.049C370.237 135.266 369.234 135.32 368.263 135.209C367.291 135.097 366.37 134.822 365.551 134.4C364.733 133.977 364.033 133.415 363.493 132.746C362.952 132.077 362.581 131.313 362.401 130.499C362.22 129.685 362.234 128.836 362.441 128.001C362.648 127.166 363.044 126.361 363.608 125.632C364.171 124.904 364.89 124.265 365.723 123.754C366.557 123.242 367.489 122.867 368.466 122.65C369.443 122.434 370.445 122.38 371.417 122.491C372.389 122.603 373.31 122.877 374.129 123.3C374.947 123.723 375.647 124.284 376.187 124.954C376.728 125.623 377.099 126.387 377.279 127.201ZM373.659 126.071C373.315 125.549 372.866 125.104 372.337 124.761C371.808 124.418 371.21 124.184 370.577 124.072C369.943 123.96 369.287 123.973 368.646 124.109C368.005 124.245 367.391 124.502 366.84 124.866C366.288 125.23 365.81 125.693 365.432 126.228C365.054 126.764 364.784 127.362 364.638 127.988C364.491 128.614 364.471 129.256 364.578 129.877C364.684 130.499 364.917 131.087 365.261 131.609C365.605 132.131 366.054 132.576 366.583 132.919C367.112 133.262 367.71 133.496 368.343 133.608C368.977 133.72 369.633 133.707 370.274 133.571C370.915 133.435 371.529 133.177 372.08 132.814C372.632 132.45 373.11 131.987 373.488 131.452C373.866 130.916 374.136 130.318 374.282 129.692C374.429 129.066 374.449 128.424 374.342 127.803C374.235 127.181 374.003 126.593 373.659 126.071Z" fill="#502B66"/>
<path d="M149.175 127.153C149.406 127.956 149.461 128.801 149.336 129.64C149.211 130.479 148.909 131.296 148.446 132.044C147.984 132.792 147.37 133.457 146.641 134C145.911 134.544 145.079 134.955 144.194 135.211C143.308 135.466 142.385 135.561 141.478 135.49C140.571 135.42 139.698 135.184 138.908 134.797C138.118 134.411 137.427 133.88 136.874 133.237C136.321 132.593 135.917 131.849 135.685 131.047C135.454 130.244 135.399 129.399 135.524 128.56C135.649 127.721 135.951 126.904 136.414 126.156C136.876 125.407 137.49 124.743 138.219 124.199C138.949 123.656 139.781 123.245 140.666 122.989C141.552 122.734 142.475 122.639 143.382 122.71C144.289 122.78 145.162 123.016 145.952 123.403C146.742 123.789 147.433 124.319 147.986 124.963C148.539 125.607 148.943 126.351 149.175 127.153ZM146.458 126.074C146.109 125.58 145.659 125.166 145.132 124.854C144.606 124.543 144.013 124.34 143.388 124.258C142.763 124.176 142.119 124.216 141.491 124.376C140.863 124.537 140.264 124.813 139.728 125.191C139.193 125.569 138.731 126.04 138.37 126.578C138.008 127.116 137.754 127.71 137.622 128.326C137.489 128.942 137.481 129.568 137.598 130.169C137.715 130.77 137.954 131.333 138.302 131.826C138.651 132.32 139.101 132.734 139.627 133.046C140.154 133.357 140.747 133.56 141.372 133.642C141.997 133.724 142.641 133.684 143.269 133.524C143.897 133.363 144.496 133.087 145.032 132.709C145.567 132.331 146.029 131.86 146.39 131.322C146.752 130.784 147.006 130.19 147.138 129.574C147.271 128.958 147.279 128.332 147.162 127.731C147.045 127.13 146.806 126.567 146.458 126.074Z" fill="#502B66"/>
<path d="M372.08 132.814C374.399 131.285 375.106 128.266 373.659 126.071C372.212 123.876 369.159 123.337 366.84 124.866C364.52 126.395 363.814 129.414 365.261 131.609C366.708 133.804 369.761 134.343 372.08 132.814Z" fill="#E5CECA"/>
<path d="M145.032 132.709C147.284 131.12 147.922 128.15 146.458 126.074C144.993 123.998 141.98 123.603 139.728 125.191C137.476 126.78 136.838 129.751 138.302 131.826C139.767 133.902 142.78 134.298 145.032 132.709Z" fill="#E5CECA"/>
<path d="M305.6 274.19C302.78 274.843 301.803 274.06 302.67 271.84C309.897 263.793 314.253 254.097 315.74 242.75C318.84 219.01 309.58 193.26 298.22 173.03C295.56 168.303 292.46 163.82 288.92 159.58C282.253 151.587 282.51 151.36 289.69 158.9C292.277 161.613 294.673 164.493 296.88 167.54C314.41 191.78 327.97 230.45 314.24 259.05C312.16 263.37 308.18 268.89 305.6 274.19Z" fill="#502B66"/>
<path d="M212.9 268.9C211.95 271.35 202.2 260.49 201.41 259.32C189.63 241.95 189.39 220.6 194.93 200.99C196.83 194.27 199.203 187.753 202.05 181.44C206.85 170.793 207.347 170.99 203.54 182.03C201.093 189.117 199.073 196.187 197.48 203.24C192.16 226.87 194.03 250.5 212.77 268.34C212.844 268.412 212.896 268.503 212.919 268.602C212.942 268.702 212.935 268.805 212.9 268.9Z" fill="#502B66"/>
<path d="M266.54 257.61C255.847 252.477 247.5 245.093 241.5 235.46C235.13 225.25 229.8 211.54 227.46 199C227 195.72 226.763 192.433 226.75 189.14C226.703 182.06 227.233 182.02 228.34 189.02C228.68 191.173 228.997 192.83 229.29 193.99C234.48 214.4 244.54 234.78 259.28 249.93C261.713 252.437 264.133 254.997 266.54 257.61Z" fill="#502B66"/>
<path d="M121.91 194.27L121.75 198.62C121.745 198.755 121.713 198.888 121.655 199.01C121.597 199.132 121.514 199.241 121.412 199.331C121.311 199.421 121.191 199.489 121.062 199.532C120.933 199.575 120.796 199.591 120.66 199.58L119.73 199.5C119.588 199.491 119.446 199.511 119.314 199.559C119.181 199.607 119.061 199.683 118.96 199.78C117.52 201.147 116.797 202.803 116.79 204.75C116.057 206.377 116.613 207.377 118.46 207.75C118.74 208.17 119.08 208.503 119.48 208.75C121.06 209.71 120.937 210.323 119.11 210.59C118.63 210.663 118.1 210.633 117.52 210.5C109.79 208.79 103.78 202.36 100.5 195.54C107.567 193.847 114.703 193.423 121.91 194.27Z" fill="#6DA9AD"/>
<path d="M412.18 196.51C408.127 203.023 402.237 207.523 394.51 210.01C393.103 210.463 392.473 209.953 392.62 208.48C392.88 205.99 396.13 202.66 392.17 200.73C391.243 199.423 391.023 198.323 391.51 197.43C392.37 195.863 393.69 195.047 395.47 194.98C399.21 194.84 402.89 194.77 406.52 194.34C408.62 194.093 410.507 194.817 412.18 196.51Z" fill="#6DA9AD"/>
<path d="M227.46 199C229.8 211.54 235.13 225.25 241.5 235.46C247.5 245.093 255.847 252.477 266.54 257.61C269.18 258.89 273.317 261.363 278.95 265.03C285.43 269.243 293.337 271.513 302.67 271.84C301.803 274.06 302.78 274.843 305.6 274.19C312.4 272.96 320.52 269.94 324.61 263.98C325.923 262.073 327.253 260.18 328.6 258.3C329.76 256.68 330.24 256.86 330.04 258.84C329.48 264.547 327.8 269.92 325 274.96C322.1 278.82 318.867 282.35 315.3 285.55C313.533 287.143 313.787 287.6 316.06 286.92C320.813 285.5 324.993 282.91 328.6 279.15C328.927 282.883 328.763 286.567 328.11 290.2C326.34 298.48 313.89 302.93 306.51 304.58C304.597 305.007 304.577 305.307 306.45 305.48C311.99 306 320.31 303.54 325.57 301.42L325.54 309.75C318.13 327.33 304.58 334.38 289.24 343.7C286.54 345.34 285.09 347.05 284.52 350C282.87 358.59 281.35 368.05 288.26 375.26C278.74 382.713 268.757 389.593 258.31 395.9L255.85 396.57C255.675 396.619 255.516 396.714 255.391 396.846C255.266 396.978 255.179 397.142 255.14 397.32C255.107 397.493 255.063 397.663 255.01 397.83C254.577 399.25 254.167 399.243 253.78 397.81C253.58 397.07 253.057 396.5 252.21 396.1C239.05 387.76 232.64 384.08 224.38 373.96C228.173 371.16 230.257 367.577 230.63 363.21C231.11 357.62 230.05 346.73 224.43 343.56C209.92 335.39 193.99 327.18 187.5 309.94L185.54 300.25C190.693 303.17 196.22 304.79 202.12 305.11C204.37 305.23 202.31 304.06 201.82 303.94C196.78 302.74 186.26 298.25 183.96 293.28C182.933 291.053 182.35 288.21 182.21 284.75C181.503 282.863 181.5 281 182.2 279.16C186.82 284.15 192.68 285.99 198.84 287.7C198.898 287.715 198.959 287.715 199.017 287.699C199.075 287.684 199.128 287.653 199.17 287.61C199.39 287.377 199.327 287.167 198.98 286.98C190.88 282.627 185.07 276.417 181.55 268.35C181.383 265.003 181.06 261.74 180.58 258.56C180.36 257.07 181.06 255.65 182.3 258.02C187.99 268.92 199.58 275.1 212 272.79C214.02 272.543 214.173 271.697 212.46 270.25C212.453 270.103 212.48 269.977 212.54 269.87C212.573 269.814 212.622 269.768 212.681 269.74C212.739 269.711 212.805 269.701 212.87 269.71C217.97 270.417 223.093 270.703 228.24 270.57C229.533 270.537 229.79 270.003 229.01 268.97C226.01 264.99 224.05 260.533 223.13 255.6C222.67 253.1 223.45 250.19 226.76 252.75C230.42 258.02 236 260.84 239.89 263.86C240.69 264.48 247.82 270.05 248.14 269.69C248.158 269.668 248.172 269.644 248.18 269.617C248.188 269.59 248.191 269.562 248.188 269.534C248.186 269.506 248.177 269.478 248.164 269.454C248.15 269.429 248.132 269.407 248.11 269.39C231.93 256.34 226.27 229.84 225.08 210.22C225.347 206.533 225.72 202.843 226.2 199.15C226.31 198.28 227.08 197.62 227.46 199Z" fill="#E5CECA"/>
<path d="M82.99 200.29C78.37 209.94 75.44 224.8 81.28 234.33C89.9 248.38 107.46 254.3 123.39 253.67C123.602 253.664 123.811 253.726 123.987 253.846C124.162 253.966 124.297 254.139 124.37 254.34L127.92 264.29C127.979 264.46 128.083 264.609 128.22 264.72C131.61 267.55 114.1 267.28 113.21 267.22C96.16 265.99 81.15 252.69 73.48 238.01C70.11 231.57 67.61 221.37 70.21 214.27C70.6367 213.11 70.9733 211.907 71.22 210.66C74.1533 206.153 78.0767 202.697 82.99 200.29Z" fill="#6DA9AD"/>
<path d="M429.25 200.79C434.597 204.15 438.963 208.483 442.35 213.79C443.177 218.537 443.39 221.947 442.99 224.02C437.59 252.08 412.78 271.85 383.96 267.04C383.822 267.017 383.69 266.966 383.573 266.888C383.456 266.811 383.357 266.709 383.282 266.591C383.206 266.472 383.156 266.338 383.135 266.199C383.115 266.059 383.123 265.916 383.16 265.78C384.32 261.64 385.85 257.637 387.75 253.77C387.836 253.595 387.97 253.448 388.138 253.348C388.305 253.249 388.497 253.201 388.69 253.21C406.21 253.97 428.44 248.07 433.38 228.41C436.03 217.87 433.67 210.53 429.25 200.79Z" fill="#6DA9AD"/>
<path d="M116.79 204.75C117.81 205.517 118.367 206.517 118.46 207.75C116.613 207.377 116.057 206.377 116.79 204.75Z" fill="#E5CECA"/>
<path d="M225.08 210.22C226.27 229.84 231.93 256.34 248.11 269.39C248.132 269.407 248.15 269.429 248.164 269.454C248.177 269.479 248.186 269.506 248.188 269.534C248.191 269.562 248.188 269.59 248.18 269.617C248.172 269.644 248.158 269.668 248.14 269.69C247.82 270.05 240.69 264.48 239.89 263.86C236 260.84 230.42 258.02 226.76 252.75C226.24 250.623 225.473 248.603 224.46 246.69C219.95 238.15 217.77 230.15 217.69 220.4C217.69 220.346 217.701 220.293 217.721 220.243C217.742 220.193 217.772 220.148 217.81 220.11C218.063 219.85 218.213 219.98 218.26 220.5C219.313 231.24 222.597 241.237 228.11 250.49C228.201 250.638 228.251 250.808 228.254 250.982C228.258 251.156 228.215 251.328 228.13 251.48C227.717 252.22 227.98 252.753 228.92 253.08C229.08 253.14 229.217 253.23 229.33 253.35C230.71 254.87 238.64 263.02 236.94 259.08C236.013 256.933 234.1 254 231.2 250.28C223.07 239.85 220.84 217.94 221.42 205.17C221.426 205.042 221.483 204.917 221.58 204.82C222.63 203.82 223.17 215.67 223.17 216.37C223.17 216.414 223.179 216.458 223.195 216.499C223.212 216.539 223.237 216.576 223.267 216.607C223.298 216.638 223.335 216.662 223.375 216.678C223.414 216.694 223.457 216.701 223.5 216.7C223.607 216.7 223.693 216.723 223.76 216.77C223.853 216.837 223.897 216.82 223.89 216.72C223.883 214.44 224.28 212.273 225.08 210.22Z" fill="#502B66"/>
<path d="M328.6 279.15C324.993 282.91 320.813 285.5 316.06 286.92C313.787 287.6 313.533 287.143 315.3 285.55C318.867 282.35 322.1 278.82 325 274.96L327.27 275.29C327.422 275.312 327.577 275.298 327.723 275.249C327.869 275.201 328.001 275.119 328.11 275.01L335.71 267.63C335.729 267.61 335.751 267.595 335.776 267.584C335.801 267.573 335.828 267.568 335.855 267.568C335.882 267.568 335.909 267.573 335.934 267.584C335.959 267.595 335.981 267.61 336 267.63L336.2 267.81C336.242 267.852 336.265 267.912 336.265 267.978C336.265 268.044 336.242 268.112 336.2 268.17L328.6 279.15Z" fill="#502B66"/>
<path d="M181.55 268.35C185.07 276.417 190.88 282.627 198.98 286.98C199.327 287.167 199.39 287.377 199.17 287.61C199.128 287.653 199.075 287.684 199.017 287.699C198.959 287.715 198.898 287.715 198.84 287.7C192.68 285.99 186.82 284.15 182.2 279.16L177.5 272.11C175.047 268.43 175.45 268.087 178.71 271.08C179.023 271.367 179.32 271.673 179.6 272C179.693 272.102 179.809 272.179 179.938 272.224C180.067 272.269 180.206 272.282 180.34 272.26C182.08 271.96 180.23 269.62 181.55 268.35Z" fill="#502B66"/>
<path d="M212.46 270.25C214.173 271.697 214.02 272.543 212 272.79C210.98 271.623 211.133 270.777 212.46 270.25Z" fill="#502B66"/>
<path d="M182.21 284.75C182.35 288.21 182.933 291.053 183.96 293.28C186.26 298.25 196.78 302.74 201.82 303.94C202.31 304.06 204.37 305.23 202.12 305.11C196.22 304.79 190.693 303.17 185.54 300.25C182.27 297.79 177.61 293 174.02 291.57C173.767 291.47 173.513 291.36 173.26 291.24C171.707 290.527 171.783 290.2 173.49 290.26C176.083 290.353 178.467 291.103 180.64 292.51C181.633 293.143 182.043 292.88 181.87 291.72C181.523 289.36 181.637 287.037 182.21 284.75Z" fill="#502B66"/>
<path d="M328.11 290.2C328.657 290.993 328.943 291.787 328.97 292.58C328.975 292.746 329.022 292.908 329.106 293.052C329.19 293.195 329.308 293.315 329.45 293.402C329.592 293.488 329.753 293.538 329.919 293.546C330.085 293.555 330.25 293.521 330.4 293.45L334.24 291.61C337.653 289.97 337.947 290.407 335.12 292.92L325.57 301.42C320.31 303.54 311.99 306 306.45 305.48C304.577 305.307 304.597 305.007 306.51 304.58C313.89 302.93 326.34 298.48 328.11 290.2Z" fill="#502B66"/>
<path d="M187.5 309.94C193.99 327.18 209.92 335.39 224.43 343.56C230.05 346.73 231.11 357.62 230.63 363.21C230.257 367.577 228.173 371.16 224.38 373.96C221.307 372.48 219.313 370.417 218.4 367.77C217.66 365.637 216.64 365.497 215.34 367.35C208.927 376.457 200.707 383.487 190.68 388.44C190.501 388.528 190.352 388.668 190.254 388.843C190.156 389.018 190.113 389.219 190.13 389.42C191.26 403.74 215.23 430.43 229.31 433.47C229.445 433.501 229.585 433.503 229.721 433.476C229.858 433.448 229.987 433.391 230.1 433.31C231.52 432.31 232.91 430.633 234.27 428.28C240.363 417.693 246.343 406.967 252.21 396.1C253.057 396.5 253.58 397.07 253.78 397.81C254.167 399.243 254.577 399.25 255.01 397.83C255.063 397.663 255.107 397.493 255.14 397.32C255.179 397.142 255.266 396.978 255.391 396.846C255.516 396.714 255.675 396.619 255.85 396.57L258.31 395.9C258.597 398.04 259.387 399.863 260.68 401.37C261.96 402.85 262.787 403.96 263.16 404.7C268.1 414.4 273.507 423.87 279.38 433.11C279.497 433.298 279.673 433.441 279.88 433.517C280.086 433.593 280.312 433.598 280.52 433.53C300.08 427.26 314.68 408.71 321.4 390.15C321.477 389.939 321.481 389.708 321.41 389.494C321.339 389.28 321.198 389.096 321.01 388.97C316.743 386.163 312.543 383.373 308.41 380.6C302.96 376.94 299.9 371.36 295.68 366.38C294.873 365.427 294.297 365.55 293.95 366.75C293.09 369.743 291.193 372.58 288.26 375.26C281.35 368.05 282.87 358.59 284.52 350C285.09 347.05 286.54 345.34 289.24 343.7C304.58 334.38 318.13 327.33 325.54 309.75L328.79 309.57C328.949 309.56 329.108 309.589 329.253 309.654C329.399 309.718 329.527 309.817 329.626 309.942C329.725 310.066 329.793 310.213 329.823 310.37C329.853 310.526 329.845 310.687 329.8 310.84C326.047 323.82 323.697 333.623 322.75 340.25C321.51 348.957 319.757 357.56 317.49 366.06C317.343 366.613 317.39 366.577 317.63 365.95C320.257 359.19 323.607 354.017 327.68 350.43C331.95 346.68 334.31 344.76 336.73 339.45C340.49 331.17 344.217 322.88 347.91 314.58C347.933 314.531 347.972 314.492 348.021 314.472C348.069 314.451 348.122 314.451 348.17 314.47L348.44 314.56C348.463 314.569 348.482 314.589 348.495 314.618C348.508 314.647 348.513 314.683 348.51 314.72C348.357 319.093 348.233 321.71 348.14 322.57C346.467 338.483 346.06 354.42 346.92 370.38C347.48 380.8 347.78 387.56 349.62 396.03C349.667 396.237 349.777 396.423 349.935 396.563C350.093 396.703 350.291 396.79 350.5 396.81L361.98 397.99C362.212 398.016 362.432 398.125 362.6 398.3C366.94 402.83 373.66 409.86 375.01 416.08C377.68 428.43 374.7 442.16 378.72 453.89C381.347 461.543 386.087 467.917 392.94 473.01C393.09 473.121 393.206 473.271 393.275 473.444C393.344 473.617 393.363 473.806 393.33 473.99C392.75 477.41 391.527 480.74 389.66 483.98L122.44 484L122.97 483.86C123.657 483.687 123.717 483.387 123.15 482.96C121.397 481.633 120.11 479.88 119.29 477.7C118.59 475.847 118.997 474.193 120.51 472.74C126.88 466.63 133.87 456.81 134.26 447.68C134.587 440.04 134.92 432.397 135.26 424.75C135.47 419.99 135.73 414.26 139.03 410.86C143.23 406.53 146.61 398.81 153.34 397.79C156.46 397.31 159.567 396.863 162.66 396.45C162.869 396.421 163.064 396.327 163.217 396.179C163.369 396.032 163.472 395.84 163.51 395.63C163.93 393.29 164.22 390.827 164.38 388.24C165.88 363.9 165.22 340.073 162.4 316.76C162.36 316.413 162.363 316.107 162.41 315.84C162.663 314.553 163.067 314.503 163.62 315.69C170.12 329.617 175.147 339.487 178.7 345.3C179.85 347.18 183.33 348.06 185.01 350.37C188.943 355.81 192.4 361.543 195.38 367.57C195.41 367.627 195.455 367.674 195.51 367.706C195.565 367.738 195.627 367.753 195.69 367.75C196.05 367.737 196.107 367.517 195.86 367.09C192.907 361.917 190.873 356.387 189.76 350.5C189.54 349.3 189.98 348.09 189.41 346.56C188.937 345.3 188.71 343.99 188.73 342.63C188.733 342.483 188.703 342.337 188.642 342.202C188.582 342.067 188.492 341.947 188.38 341.85L188.12 341.64C187.927 341.472 187.805 341.236 187.78 340.98C187.653 339.82 187.25 337.89 186.57 335.19C185.623 331.463 184.037 323.99 181.81 312.77C181.48 311.1 179.15 308.46 183.52 309.07C184.833 309.257 186.16 309.547 187.5 309.94Z" fill="#502B66"/>
<path d="M258.31 395.9C268.757 389.593 278.74 382.713 288.26 375.26C291.193 372.58 293.09 369.743 293.95 366.75C294.297 365.55 294.873 365.427 295.68 366.38C299.9 371.36 302.96 376.94 308.41 380.6C312.543 383.373 316.743 386.163 321.01 388.97C321.198 389.096 321.339 389.281 321.41 389.495C321.481 389.709 321.477 389.939 321.4 390.15C314.68 408.71 300.08 427.26 280.52 433.53C280.312 433.598 280.086 433.594 279.88 433.517C279.673 433.441 279.497 433.298 279.38 433.11C273.507 423.87 268.1 414.4 263.16 404.7C262.787 403.96 261.96 402.85 260.68 401.37C259.387 399.863 258.597 398.04 258.31 395.9ZM294.88 417.03C290.367 419.123 286.02 421.517 281.84 424.21C281.628 424.347 281.371 424.398 281.123 424.353C280.874 424.309 280.652 424.172 280.5 423.97L277.83 420.4C277.802 420.364 277.767 420.334 277.727 420.315C277.687 420.296 277.643 420.287 277.6 420.29C277.313 420.317 277.25 420.5 277.41 420.84C278.39 422.913 279.483 424.63 280.69 425.99C280.849 426.17 281.067 426.288 281.304 426.321C281.541 426.354 281.781 426.3 281.98 426.17C286.907 422.97 292.023 420.113 297.33 417.6C299.203 416.707 299.92 415.647 299.48 414.42C299.047 413.227 299.463 412.76 300.73 413.02C300.87 413.051 301.017 413.051 301.159 413.018C301.3 412.985 301.434 412.921 301.55 412.83C307.95 407.9 313.33 397.01 316.36 389.66C316.947 388.233 316.74 387.373 315.74 387.08C315.495 387.007 315.23 387.032 315.003 387.149C314.776 387.267 314.602 387.468 314.52 387.71C313 392.117 310.977 396.29 308.45 400.23C308.243 400.55 307.873 401.657 307.34 403.55C307.277 403.768 307.143 403.959 306.96 404.092C306.777 404.224 306.555 404.291 306.33 404.28C306.083 404.267 305.863 404.193 305.67 404.06C305.54 403.97 305.391 403.911 305.234 403.888C305.078 403.866 304.919 403.88 304.77 403.93C303.103 404.497 302.97 405.277 304.37 406.27C304.497 406.358 304.601 406.474 304.676 406.609C304.75 406.744 304.792 406.894 304.799 407.048C304.806 407.202 304.777 407.355 304.715 407.496C304.652 407.637 304.558 407.761 304.44 407.86C301.33 410.43 297.04 412.81 295.37 416.53C295.273 416.749 295.099 416.927 294.88 417.03Z" fill="#6DA9AD"/>
<path d="M224.38 373.96C232.64 384.08 239.05 387.76 252.21 396.1C246.343 406.967 240.363 417.693 234.27 428.28C232.91 430.633 231.52 432.31 230.1 433.31C229.987 433.392 229.858 433.448 229.721 433.476C229.585 433.503 229.445 433.501 229.31 433.47C215.23 430.43 191.26 403.74 190.13 389.42C190.113 389.219 190.156 389.018 190.254 388.843C190.352 388.668 190.501 388.528 190.68 388.44C200.707 383.487 208.927 376.457 215.34 367.35C216.64 365.497 217.66 365.637 218.4 367.77C219.313 370.417 221.307 372.48 224.38 373.96ZM208.94 412.56C215.233 418.367 221.703 423.047 228.35 426.6C228.584 426.724 228.857 426.751 229.11 426.674C229.363 426.597 229.575 426.423 229.7 426.19C230.673 424.377 231.697 422.59 232.77 420.83C233.97 418.87 232.21 420.12 231.99 420.4C230.997 421.647 230.07 422.87 229.21 424.07C229.063 424.274 228.844 424.415 228.598 424.465C228.351 424.515 228.095 424.47 227.88 424.34C223.627 421.78 219.64 418.847 215.92 415.54C215.787 415.42 215.69 415.277 215.63 415.11C215.123 413.617 214.173 412.963 212.78 413.15C212.616 413.171 212.451 413.153 212.297 413.098C212.144 413.042 212.008 412.95 211.9 412.83C206.493 406.77 202.103 400.24 198.73 393.24C197.983 391.707 197.457 389.937 197.15 387.93C196.97 386.723 196.42 386.523 195.5 387.33C195.207 387.59 194.987 387.93 194.84 388.35C194.627 388.957 194.67 389.753 194.97 390.74C197.497 399.033 202.153 406.307 208.94 412.56Z" fill="#6DA9AD"/>
<path d="M208.94 412.56C202.153 406.307 197.497 399.033 194.97 390.74C194.67 389.753 194.627 388.957 194.84 388.35C194.987 387.93 195.207 387.59 195.5 387.33C196.42 386.523 196.97 386.723 197.15 387.93C197.457 389.937 197.983 391.707 198.73 393.24C202.103 400.24 206.493 406.77 211.9 412.83C212.008 412.95 212.144 413.042 212.297 413.098C212.451 413.153 212.616 413.171 212.78 413.15C214.173 412.963 215.123 413.617 215.63 415.11C215.69 415.277 215.787 415.42 215.92 415.54C219.64 418.847 223.627 421.78 227.88 424.34C228.095 424.471 228.351 424.515 228.598 424.465C228.844 424.415 229.063 424.274 229.21 424.07C230.07 422.87 230.997 421.647 231.99 420.4C232.21 420.12 233.97 418.87 232.77 420.83C231.697 422.59 230.673 424.377 229.7 426.19C229.575 426.423 229.363 426.597 229.11 426.674C228.857 426.751 228.584 426.724 228.35 426.6C221.703 423.047 215.233 418.367 208.94 412.56Z" fill="#502B66"/>
<path d="M295.37 416.53C297.04 412.81 301.33 410.43 304.44 407.86C304.558 407.761 304.652 407.637 304.715 407.496C304.777 407.355 304.806 407.202 304.799 407.048C304.792 406.894 304.75 406.744 304.676 406.609C304.601 406.474 304.497 406.358 304.37 406.27C302.97 405.277 303.103 404.497 304.77 403.93C304.919 403.88 305.078 403.866 305.234 403.888C305.391 403.911 305.54 403.97 305.67 404.06C305.863 404.193 306.083 404.267 306.33 404.28C306.555 404.291 306.777 404.224 306.96 404.092C307.143 403.959 307.277 403.768 307.34 403.55C307.873 401.657 308.243 400.55 308.45 400.23C310.977 396.29 313 392.117 314.52 387.71C314.602 387.468 314.776 387.267 315.003 387.149C315.23 387.032 315.495 387.007 315.74 387.08C316.74 387.373 316.947 388.233 316.36 389.66C313.33 397.01 307.95 407.9 301.55 412.83C301.434 412.921 301.3 412.985 301.159 413.018C301.017 413.051 300.87 413.051 300.73 413.02C299.463 412.76 299.047 413.227 299.48 414.42C299.92 415.647 299.203 416.707 297.33 417.6C292.023 420.113 286.907 422.97 281.98 426.17C281.781 426.3 281.541 426.354 281.304 426.321C281.067 426.288 280.849 426.17 280.69 425.99C279.483 424.63 278.39 422.913 277.41 420.84C277.25 420.5 277.313 420.317 277.6 420.29C277.643 420.287 277.687 420.296 277.727 420.315C277.767 420.334 277.802 420.364 277.83 420.4L280.5 423.97C280.652 424.172 280.874 424.309 281.123 424.353C281.371 424.398 281.628 424.347 281.84 424.21C286.02 421.517 290.367 419.123 294.88 417.03C295.099 416.927 295.273 416.749 295.37 416.53Z" fill="#502B66"/>
<path d="M80.94 484H61.69C62.03 479.433 62.4133 474.873 62.84 470.32C65.56 441.04 78.94 417.2 96.05 394.05C96.9033 392.897 97.8867 391.86 99 390.94C99.0397 390.907 99.0903 390.89 99.1419 390.891C99.1936 390.893 99.2427 390.914 99.28 390.95L99.48 391.15C99.5159 391.183 99.5425 391.223 99.5567 391.266C99.5708 391.308 99.572 391.352 99.56 391.39C95.0533 403.677 92.35 411.627 91.45 415.24C85.81 437.827 82.3067 460.747 80.94 484Z" fill="#502B66"/>
<path d="M449.94 484H430.44C429.02 469.04 427.083 454.147 424.63 439.32C422.09 423.953 417.947 409.04 412.2 394.58C411.1 391.813 411.637 391.447 413.81 393.48C414.897 394.5 415.933 395.657 416.92 396.95C430.59 414.87 440.51 430.63 445.91 452.77C448.24 462.3 448.98 473.61 449.94 484Z" fill="#502B66"/>
</g>
<defs>
<clipPath id="clip0_2_137">
<rect width="512" height="512" fill="white" transform="translate(0 -28)"/>
</clipPath>
</defs>
</svg>
