<svg width="40" height="40" viewBox="0 0 40 40" fill="none" xmlns="http://www.w3.org/2000/svg">
<g clip-path="url(#clip0_7_138)">
<path d="M29.2811 21.1669C28.1778 19.7558 26.4795 18.8505 24.5778 18.8505C21.2606 18.8505 18.5619 21.6062 18.5619 24.9934C18.5619 27.3846 20.2908 30.1504 23.7005 33.2141C26.1033 35.3731 28.4722 36.9006 28.5719 36.9647C28.788 37.1033 29.0345 37.1727 29.2811 37.1727C29.5277 37.1727 29.7743 37.1033 29.9903 36.9647C30.0901 36.9006 32.4587 35.3732 34.8617 33.214C38.2711 30.1503 40 27.3845 40 24.9934C40 21.6062 37.3014 18.8505 33.9842 18.8505C32.0827 18.8505 30.3844 19.756 29.2811 21.1669Z" fill="white"/>
<path d="M17.9599 30.0349C16.8784 28.3044 16.3298 26.6084 16.3298 24.9934C16.3298 20.3755 20.0299 16.6183 24.5778 16.6183C26.2873 16.6183 27.9172 17.1465 29.2811 18.1117C30.6449 17.1465 32.2746 16.6183 33.9842 16.6183C34.6917 16.6183 35.3785 16.7095 36.0341 16.8801C36.6077 15.5005 36.8972 14.1859 36.8972 12.9415C36.8972 7.36444 32.4648 2.8272 27.0167 2.8272C23.3574 2.8272 20.1566 4.87353 18.4489 7.90747C16.7411 4.87367 13.5401 2.8272 9.88054 2.8272C4.43232 2.82734 0 7.36458 0 12.9417C0 16.9795 3.02909 21.7492 9.00337 27.1184C13.3166 30.995 17.5609 33.7324 17.7395 33.8471C17.9557 33.9859 18.2024 34.0552 18.4489 34.0552C18.6955 34.0552 18.9422 33.9859 19.1584 33.8471C19.2127 33.8123 19.645 33.5332 20.339 33.055C19.3679 32.0233 18.5713 31.0128 17.9599 30.0349Z" fill="white"/>
</g>
<defs>
<clipPath id="clip0_7_138">
<rect width="40" height="40" fill="white"/>
</clipPath>
</defs>
</svg>
